M48
;Layer_Color=9474304
;FILE_FORMAT=2:4
INCH,TZ
;TYPE=PLATED
T1F00S00C0.0197
T2F00S00C0.0236
T3F00S00C0.0280
T4F00S00C0.0315
T5F00S00C0.0354
T6F00S00C0.0390
T8F00S00C0.0413
T9F00S00C0.0512
T10F00S00C0.0630
%
T01
X14470Y11020
X16200Y12360
X16610Y12120
T02
X17450Y11707
Y12061
Y12416
Y12770
Y13124
Y13479
X18120
Y13124
Y12770
Y12416
Y12061
Y11707
X12910Y17860
X12556
X12201
X11847
X11493
X11138
Y18510
X11493
X11847
X12201
X12556
X12910
T03
X4500Y5620
X7050Y10110
X9100Y10900
X9400Y11960
X9950
Y12510
X9400
X11625Y12585
X12150Y11360
X12740Y10440
X11110Y10070
Y10830
X11150Y14250
X11170Y15140
X14390Y14920
Y13970
Y12970
X14350Y11950
X14390Y9960
Y8200
X12850Y8260
X7600Y15210
X16400Y13870
X16150Y8240
X18170Y19900
X17960Y20830
X22040Y21050
X22560Y20490
X23190Y20100
X21540Y17150
X14390Y15930
X14840Y19850
X12860Y20050
X13610Y20810
X13330Y21380
X11160Y21130
X10310Y21330
X9380Y21500
X9240Y18870
X10940Y19360
X7800Y19840
X7150Y17110
T04
X23330Y22885
Y23673
Y24460
T05
X5400Y6410
X6400
X7400
X8400
X9400
X10400
X11400
X12400
X13400
X15980Y22960
X16980
X17980
X20030Y22910
X21030
X14980Y22960
X13980
X12980
X11980
X10980
X9980
X6800Y22690
Y23690
Y21120
Y20120
Y19120
X8010Y17310
X9010
X10010
X11010
X12010
X13010
T06
X22680Y12324
Y14096
T08
X19837Y12718
Y13702
T09
X21700Y11830
Y14590
T10
X23330Y22058
Y25287
M30
