G04*
G04 #@! TF.GenerationSoftware,Altium Limited,Altium Designer,20.0.2 (26)*
G04*
G04 Layer_Color=16711935*
%FSLAX25Y25*%
%MOIN*%
G70*
G01*
G75*
%ADD15C,0.01000*%
%ADD16R,0.06312X0.05524*%
%ADD30R,0.06706X0.06706*%
%ADD31C,0.06706*%
%ADD32R,0.06706X0.06706*%
%ADD33C,0.00800*%
%ADD34R,0.05950X0.05950*%
%ADD35C,0.05950*%
%ADD36C,0.10249*%
%ADD37C,0.07001*%
%ADD38R,0.07001X0.07001*%
%ADD39O,0.18517X0.09658*%
%ADD40O,0.09658X0.18517*%
%ADD41O,0.10642X0.20485*%
%ADD42C,0.06698*%
%ADD43C,0.08477*%
%ADD44C,0.04343*%
%ADD45C,0.05800*%
%ADD85R,0.03800X0.03800*%
%ADD86C,0.03800*%
G04:AMPARAMS|DCode=87|XSize=85.56mil|YSize=31.23mil|CornerRadius=6.9mil|HoleSize=0mil|Usage=FLASHONLY|Rotation=270.000|XOffset=0mil|YOffset=0mil|HoleType=Round|Shape=RoundedRectangle|*
%AMROUNDEDRECTD87*
21,1,0.08556,0.01742,0,0,270.0*
21,1,0.07175,0.03123,0,0,270.0*
1,1,0.01381,-0.00871,-0.03588*
1,1,0.01381,-0.00871,0.03588*
1,1,0.01381,0.00871,0.03588*
1,1,0.01381,0.00871,-0.03588*
%
%ADD87ROUNDEDRECTD87*%
G36*
X232899Y196100D02*
X234781Y194219D01*
X234781Y192275D01*
X235500D01*
Y182300D01*
X234782D01*
X234782Y180818D01*
X234581Y180419D01*
X234382Y180219D01*
X233682Y179619D01*
X231881Y178718D01*
X229082Y179419D01*
X228681Y180119D01*
X227981Y181419D01*
X228003Y182300D01*
X227500D01*
Y192275D01*
X228252D01*
X228295Y193995D01*
X230400Y196100D01*
X232899Y196100D01*
D02*
G37*
D15*
X235138Y192775D02*
X234993Y193782D01*
X234570Y194708D01*
X233904Y195476D01*
X233048Y196027D01*
X232072Y196313D01*
X231054D01*
X230078Y196027D01*
X229222Y195476D01*
X228556Y194708D01*
X228133Y193782D01*
X227988Y192775D01*
X228133Y191768D01*
X228556Y190842D01*
X229222Y190073D01*
X230078Y189523D01*
X231054Y189236D01*
X232072D01*
X233048Y189523D01*
X233904Y190073D01*
X234570Y190842D01*
X234993Y191768D01*
X235138Y192775D01*
X235075Y182225D02*
X234930Y183232D01*
X234507Y184158D01*
X233841Y184927D01*
X232985Y185477D01*
X232009Y185764D01*
X230991D01*
X230015Y185477D01*
X229159Y184927D01*
X228493Y184158D01*
X228070Y183232D01*
X227925Y182225D01*
X228070Y181218D01*
X228493Y180292D01*
X229159Y179524D01*
X230015Y178973D01*
X230991Y178687D01*
X232009D01*
X232985Y178973D01*
X233841Y179524D01*
X234507Y180292D01*
X234930Y181218D01*
X235075Y182225D01*
D16*
X165800Y99187D02*
D03*
Y92100D02*
D03*
X153100Y99187D02*
D03*
Y92100D02*
D03*
X165800Y152543D02*
D03*
Y145457D02*
D03*
X153100Y145457D02*
D03*
Y152543D02*
D03*
D30*
X68000Y211200D02*
D03*
Y236900D02*
D03*
D31*
Y201200D02*
D03*
Y191200D02*
D03*
X114000Y64100D02*
D03*
X104000D02*
D03*
X94000D02*
D03*
X84000D02*
D03*
X74000D02*
D03*
X64000D02*
D03*
X54000D02*
D03*
X124000D02*
D03*
X159800Y229600D02*
D03*
X149800D02*
D03*
X139800D02*
D03*
X129800D02*
D03*
X119800D02*
D03*
X109800D02*
D03*
X99800D02*
D03*
X169800D02*
D03*
X210300Y229100D02*
D03*
X90100Y173100D02*
D03*
X100100D02*
D03*
X110100D02*
D03*
X120100D02*
D03*
X130100D02*
D03*
X68000Y226900D02*
D03*
D32*
X134000Y64100D02*
D03*
X179800Y229600D02*
D03*
X200300Y229100D02*
D03*
X80100Y173100D02*
D03*
D33*
X177900Y160600D02*
D03*
X156000Y181900D02*
D03*
X111383Y185100D02*
D03*
X114927D02*
D03*
X118470D02*
D03*
X122013D02*
D03*
X125557D02*
D03*
X129100D02*
D03*
X174500Y117070D02*
D03*
Y120613D02*
D03*
Y124157D02*
D03*
Y127700D02*
D03*
Y131243D02*
D03*
Y134787D02*
D03*
X181200Y117070D02*
D03*
Y120613D02*
D03*
Y124157D02*
D03*
Y127700D02*
D03*
Y131243D02*
D03*
Y134787D02*
D03*
X129100Y178600D02*
D03*
X125557D02*
D03*
X122013D02*
D03*
X118470D02*
D03*
X114927D02*
D03*
X111383D02*
D03*
D34*
X233300Y228852D02*
D03*
D35*
Y236726D02*
D03*
Y244600D02*
D03*
D36*
Y252868D02*
D03*
Y220584D02*
D03*
D37*
X198367Y127179D02*
D03*
D38*
Y137021D02*
D03*
D39*
X199489Y205604D02*
D03*
D40*
X211300Y187100D02*
D03*
D41*
X187678D02*
D03*
D42*
X226800Y123242D02*
D03*
Y140958D02*
D03*
D43*
X216997Y145899D02*
D03*
Y118301D02*
D03*
D44*
X162000Y123600D02*
D03*
X166100Y121200D02*
D03*
X144700Y110200D02*
D03*
D45*
X143500Y119500D02*
D03*
X164000Y138700D02*
D03*
X103100Y213300D02*
D03*
X231900Y201000D02*
D03*
X215400Y171500D02*
D03*
X225600Y204900D02*
D03*
X220400Y210500D02*
D03*
X143900Y129700D02*
D03*
Y139700D02*
D03*
Y149200D02*
D03*
Y82000D02*
D03*
X45000Y56200D02*
D03*
X109400Y193600D02*
D03*
X136100Y208100D02*
D03*
X93800Y215000D02*
D03*
X179600Y208300D02*
D03*
X133300Y213800D02*
D03*
X92400Y188700D02*
D03*
X78000Y198400D02*
D03*
X181700Y199000D02*
D03*
X111600Y211300D02*
D03*
X148400Y198500D02*
D03*
X128600Y200500D02*
D03*
X111700Y151400D02*
D03*
X111500Y142500D02*
D03*
X161500Y82400D02*
D03*
X127400Y104400D02*
D03*
X143900Y99600D02*
D03*
X116250Y125850D02*
D03*
X91000Y109000D02*
D03*
X111100Y108300D02*
D03*
Y100700D02*
D03*
X143900Y159300D02*
D03*
X71500Y171100D02*
D03*
X99500Y125100D02*
D03*
Y119600D02*
D03*
X94000D02*
D03*
Y125100D02*
D03*
X128500Y82600D02*
D03*
X70500Y101100D02*
D03*
X121500Y113600D02*
D03*
X76000Y152100D02*
D03*
D85*
X231400Y187500D02*
D03*
D86*
X231500Y181200D02*
D03*
X231563Y193731D02*
D03*
D87*
X152200Y111356D02*
D03*
X157200D02*
D03*
X162200D02*
D03*
X167200D02*
D03*
Y130844D02*
D03*
X162200D02*
D03*
X157200D02*
D03*
X152200D02*
D03*
M02*
