G04*
G04 #@! TF.GenerationSoftware,Altium Limited,Altium Designer,20.0.2 (26)*
G04*
G04 Layer_Color=16711935*
%FSLAX25Y25*%
%MOIN*%
G70*
G01*
G75*
%ADD10C,0.00787*%
%ADD14C,0.00500*%
%ADD88C,0.00394*%
G36*
X157240Y107265D02*
X155272D01*
Y111989D01*
X157240D01*
Y107265D01*
D02*
G37*
G36*
X151335D02*
X149366D01*
Y111989D01*
X151335D01*
Y107265D01*
D02*
G37*
G36*
X158009Y89003D02*
X156200D01*
Y91313D01*
X158009D01*
Y89003D01*
D02*
G37*
G36*
X150599D02*
X148800D01*
Y91306D01*
X150599D01*
Y89003D01*
D02*
G37*
G36*
X123102Y81460D02*
X120800D01*
Y83259D01*
X123102D01*
Y81460D01*
D02*
G37*
G36*
X154300Y81103D02*
X152500D01*
Y83403D01*
X154300D01*
Y81103D01*
D02*
G37*
G36*
X115199Y77759D02*
X112900D01*
Y79559D01*
X115199D01*
Y77759D01*
D02*
G37*
G36*
X123110Y74051D02*
X120800D01*
Y75859D01*
X123110D01*
Y74051D01*
D02*
G37*
D10*
X150271Y138600D02*
X149484D01*
X150271D01*
X154234Y67847D02*
X153446D01*
X154234D01*
X222670Y228852D02*
X221883D01*
X222670D01*
X198761Y149580D02*
X197973D01*
X198761D01*
X149991Y203040D02*
X149204D01*
X149991D01*
X147415Y193887D02*
X146628D01*
X147415D01*
X111194Y191138D02*
X110406D01*
X111194D01*
X149366Y111989D02*
X157240D01*
Y107265D02*
Y111989D01*
X149366Y107265D02*
X157240D01*
X149366D02*
Y111989D01*
D14*
X149857Y113226D02*
X169543D01*
X149857Y128974D02*
X169543D01*
Y113226D02*
Y128974D01*
X149857Y113226D02*
Y128974D01*
X156202Y62653D02*
Y69346D01*
X143998Y62653D02*
X156202D01*
X143998D02*
Y69346D01*
X156202D01*
X241765Y244600D02*
X257513D01*
Y228852D02*
Y244600D01*
X241765Y228852D02*
X257513D01*
X224835Y219797D02*
Y253655D01*
X241765D01*
Y244600D02*
Y253655D01*
Y228852D02*
Y244600D01*
Y219797D02*
Y228852D01*
X224835Y219797D02*
X241765D01*
X184981Y146667D02*
X207619D01*
Y117533D02*
Y146667D01*
X184981Y117533D02*
X207619D01*
X184981D02*
Y146667D01*
X184922Y169384D02*
Y204817D01*
Y169384D02*
X241615D01*
Y204817D01*
X184922D02*
X241615D01*
X115441Y75706D02*
Y81612D01*
X118591Y72951D02*
X120559D01*
Y77675D01*
Y79643D02*
Y84368D01*
X118591D02*
X120559D01*
X150447Y83644D02*
X156353D01*
X159109Y86794D02*
Y88762D01*
X154384D02*
X159109D01*
X147691D02*
X152416D01*
X147691Y86794D02*
Y88762D01*
X211013Y118104D02*
X241997D01*
Y146096D01*
X211013D02*
X241997D01*
X211013Y118104D02*
Y146096D01*
X156507Y205009D02*
X162806D01*
Y193591D02*
Y205009D01*
X156507Y193591D02*
X162806D01*
X156507D02*
Y205009D01*
X120683Y193335D02*
Y205265D01*
X138400Y193335D02*
Y205265D01*
X120683D02*
X138400D01*
X120683Y193335D02*
X138400D01*
X85426Y190961D02*
X101174D01*
X85426Y211039D02*
X101174D01*
Y190961D02*
Y211039D01*
X85426Y190961D02*
Y211039D01*
D88*
X163044Y91411D02*
Y99876D01*
X168556Y91411D02*
Y99876D01*
X163044D02*
X168556D01*
X163044Y91411D02*
X168556D01*
X150344D02*
Y99876D01*
X155856Y91411D02*
Y99876D01*
X150344D02*
X155856D01*
X150344Y91411D02*
X155856D01*
X163044Y153232D02*
X168556D01*
X163044Y144768D02*
X168556D01*
X163044D02*
Y153232D01*
X168556Y144768D02*
Y153232D01*
X150344Y144768D02*
X155856D01*
X150344Y153232D02*
X155856D01*
Y144768D02*
Y153232D01*
X150344Y144768D02*
Y153232D01*
X159567Y71032D02*
X165079D01*
X159567Y62568D02*
X165079D01*
Y71032D01*
X159567Y62568D02*
Y71032D01*
X149268Y116701D02*
Y122213D01*
X157732Y116701D02*
Y122213D01*
X149268D02*
X157732D01*
X149268Y116701D02*
X157732D01*
X188568Y221856D02*
X197032D01*
X188568Y216344D02*
X197032D01*
X188568D02*
Y221856D01*
X197032Y216344D02*
Y221856D01*
X133712Y74368D02*
Y82832D01*
X139223Y74368D02*
Y82832D01*
X133712Y74368D02*
X139223D01*
X133712Y82832D02*
X139223D01*
X76095Y75713D02*
Y81225D01*
X87906Y75713D02*
Y81225D01*
X76095Y75713D02*
X87906D01*
X76095Y81225D02*
X87906D01*
X97744Y74368D02*
Y82832D01*
X103256Y74368D02*
Y82832D01*
X97744Y74368D02*
X103256D01*
X97744Y82832D02*
X103256D01*
X51756Y74368D02*
Y82832D01*
X46244Y74368D02*
Y82832D01*
X51756D01*
X46244Y74368D02*
X51756D01*
X61744D02*
Y82832D01*
X67256Y74368D02*
Y82832D01*
X61744Y74368D02*
X67256D01*
X61744Y82832D02*
X67256D01*
X149268Y97080D02*
X157732D01*
X149268Y102592D02*
X157732D01*
Y97080D02*
Y102592D01*
X149268Y97080D02*
Y102592D01*
Y146487D02*
Y151999D01*
X157732Y146487D02*
Y151999D01*
X149268D02*
X157732D01*
X149268Y146487D02*
X157732D01*
X149268Y166344D02*
Y171856D01*
X157732Y166344D02*
Y171856D01*
X149268D02*
X157732D01*
X149268Y166344D02*
X157732D01*
X149268Y156415D02*
Y161927D01*
X157732Y156415D02*
Y161927D01*
X149268D02*
X157732D01*
X149268Y156415D02*
X157732D01*
X149268Y136558D02*
Y142070D01*
X157732Y136558D02*
Y142070D01*
X149268D02*
X157732D01*
X149268Y136558D02*
X157732D01*
X149168Y126630D02*
Y132142D01*
X157632Y126630D02*
Y132142D01*
X149168D02*
X157632D01*
X149168Y126630D02*
X157632D01*
X154868Y216344D02*
Y221856D01*
X163332Y216344D02*
Y221856D01*
X154868D02*
X163332D01*
X154868Y216344D02*
X163332D01*
X137568D02*
Y221856D01*
X146032Y216344D02*
Y221856D01*
X137568D02*
X146032D01*
X137568Y216344D02*
X146032D01*
X171968Y216244D02*
Y221756D01*
X180432Y216244D02*
Y221756D01*
X171968D02*
X180432D01*
X171968Y216244D02*
X180432D01*
X171744Y196868D02*
X177256D01*
X171744Y205332D02*
X177256D01*
X171744Y196868D02*
Y205332D01*
X177256Y196868D02*
Y205332D01*
X120468Y216344D02*
Y221856D01*
X128932Y216344D02*
Y221856D01*
X120468D02*
X128932D01*
X120468Y216344D02*
X128932D01*
M02*
