G04*
G04 #@! TF.GenerationSoftware,Altium Limited,Altium Designer,20.0.2 (26)*
G04*
G04 Layer_Color=65535*
%FSLAX25Y25*%
%MOIN*%
G70*
G01*
G75*
%ADD10C,0.00787*%
%ADD11C,0.01575*%
%ADD12C,0.00984*%
%ADD13C,0.00000*%
%ADD14C,0.00500*%
%ADD15C,0.01000*%
G36*
X212020Y161820D02*
Y161660D01*
Y161500D01*
Y161340D01*
X211860D01*
Y161180D01*
Y161020D01*
Y160860D01*
Y160700D01*
X212020D01*
X212020Y160540D01*
X212180D01*
Y160380D01*
X212500D01*
Y160220D01*
X212660D01*
Y160060D01*
X212980D01*
Y159900D01*
X212820D01*
Y159740D01*
X211700D01*
Y159580D01*
X211220D01*
Y159420D01*
X211060D01*
Y159260D01*
Y159100D01*
X210900D01*
Y158940D01*
X210740Y158940D01*
Y158780D01*
X210580Y158780D01*
Y158620D01*
X210260Y158620D01*
Y158780D01*
X210100Y158780D01*
Y158940D01*
X209940D01*
Y159100D01*
X209780D01*
Y159260D01*
Y159420D01*
X209620D01*
X209620Y159580D01*
X209140D01*
Y159740D01*
X208020D01*
Y159900D01*
X207860D01*
Y160060D01*
X208180D01*
Y160220D01*
X208340D01*
Y160380D01*
X208660D01*
Y160540D01*
X208820D01*
X208820Y160700D01*
X208980D01*
Y160860D01*
Y161020D01*
Y161180D01*
Y161340D01*
X208820D01*
Y161500D01*
Y161660D01*
Y161820D01*
Y161980D01*
X209140D01*
Y161820D01*
X209620D01*
Y161660D01*
X210260Y161660D01*
Y161500D01*
X210740D01*
Y161660D01*
X211220Y161660D01*
Y161820D01*
X211700Y161820D01*
Y161980D01*
X212020D01*
Y161820D01*
D02*
G37*
G36*
X217619Y166300D02*
X217779D01*
Y166140D01*
X217779Y165980D01*
X217779Y165820D01*
X217939D01*
Y165660D01*
X218099D01*
Y165500D01*
X218259D01*
Y165340D01*
X218419D01*
Y165180D01*
X218579D01*
Y165020D01*
X218739D01*
X218739Y164860D01*
X218899D01*
X218899Y164700D01*
X219059D01*
X219059Y164540D01*
X219219D01*
Y164380D01*
X219379D01*
Y164220D01*
X219539D01*
Y164060D01*
X219699D01*
Y163900D01*
X220019D01*
Y163740D01*
X220179Y163740D01*
Y163580D01*
X220339D01*
Y163420D01*
X220499D01*
Y163260D01*
X220659D01*
Y163100D01*
X220819D01*
Y162940D01*
X220979D01*
Y162780D01*
X221139D01*
Y162620D01*
X221299D01*
Y162460D01*
X221459D01*
Y162300D01*
X221619Y162300D01*
Y162140D01*
X221779D01*
Y161980D01*
X221939D01*
Y161820D01*
X222259Y161820D01*
X222259Y161980D01*
X222419D01*
X222419Y162140D01*
X222739D01*
Y162300D01*
X222899D01*
Y162460D01*
X223059D01*
Y162620D01*
X223219D01*
Y162780D01*
X223379D01*
Y162940D01*
X223539D01*
Y163100D01*
X223699D01*
Y163260D01*
X223859D01*
Y163420D01*
X224019D01*
Y163580D01*
X224179D01*
Y163740D01*
X224339D01*
Y163900D01*
X224499D01*
Y164060D01*
X224819D01*
Y164220D01*
X224979D01*
Y164380D01*
X225139D01*
Y164540D01*
X225299D01*
Y164700D01*
X225459D01*
Y164860D01*
X225619D01*
Y165020D01*
X225779D01*
Y165180D01*
X225939D01*
Y165340D01*
X226099D01*
Y165500D01*
X226259D01*
Y165660D01*
X226419D01*
Y165820D01*
X226579D01*
Y165980D01*
Y166140D01*
Y166300D01*
X231219D01*
Y166140D01*
X230899D01*
Y165980D01*
X230579D01*
Y165820D01*
X230259Y165820D01*
Y165660D01*
X230099D01*
Y165500D01*
X229939D01*
Y165340D01*
X229779D01*
Y165180D01*
X229619D01*
Y165020D01*
X229459D01*
Y164860D01*
Y164700D01*
X229299D01*
X229299Y164540D01*
Y164380D01*
Y164220D01*
Y164060D01*
X229139D01*
Y163900D01*
Y163740D01*
Y163580D01*
Y163420D01*
Y163260D01*
Y163100D01*
Y162940D01*
Y162780D01*
Y162620D01*
Y162460D01*
Y162300D01*
Y162140D01*
Y161980D01*
Y161820D01*
Y161660D01*
Y161500D01*
Y161340D01*
Y161180D01*
Y161020D01*
Y160860D01*
Y160700D01*
X229139Y160540D01*
Y160380D01*
Y160220D01*
Y160060D01*
Y159900D01*
Y159740D01*
Y159580D01*
X229139Y159420D01*
Y159260D01*
Y159100D01*
Y158940D01*
Y158780D01*
Y158620D01*
Y158460D01*
Y158300D01*
Y158140D01*
Y157980D01*
X229299D01*
Y157820D01*
Y157660D01*
Y157500D01*
Y157340D01*
Y157180D01*
X229459Y157180D01*
Y157020D01*
Y156860D01*
Y156700D01*
X229619D01*
Y156540D01*
Y156380D01*
X229779D01*
Y156220D01*
Y156060D01*
X229939D01*
Y155900D01*
X225459D01*
Y156060D01*
X225619D01*
Y156220D01*
X225779Y156220D01*
Y156380D01*
Y156540D01*
X225939Y156540D01*
Y156700D01*
Y156860D01*
X226099Y156860D01*
Y157020D01*
Y157180D01*
Y157340D01*
Y157500D01*
X226259D01*
Y157660D01*
Y157820D01*
Y157980D01*
Y158140D01*
Y158300D01*
Y158460D01*
Y158620D01*
X226419D01*
Y158780D01*
Y158940D01*
Y159100D01*
Y159260D01*
Y159420D01*
Y159580D01*
Y159740D01*
Y159900D01*
Y160060D01*
Y160220D01*
Y160380D01*
Y160540D01*
Y160700D01*
Y160860D01*
Y161020D01*
Y161180D01*
Y161340D01*
Y161500D01*
Y161660D01*
Y161820D01*
Y161980D01*
Y162140D01*
X226099D01*
Y161980D01*
X225939Y161980D01*
Y161820D01*
X225779D01*
Y161660D01*
X225459Y161660D01*
Y161500D01*
X225299D01*
Y161340D01*
X225139D01*
Y161180D01*
X224979D01*
Y161020D01*
X224819Y161020D01*
Y160860D01*
X224659D01*
Y160700D01*
X224499D01*
X224499Y160540D01*
X224179D01*
Y160380D01*
X224019D01*
Y160220D01*
X223859D01*
Y160060D01*
X223699D01*
Y159900D01*
X223539D01*
Y159740D01*
X223379D01*
Y159580D01*
X223219D01*
Y159420D01*
X223059D01*
Y159260D01*
X222739D01*
Y159100D01*
X222579D01*
X222579Y158940D01*
X222419D01*
Y158780D01*
X222259D01*
Y158620D01*
X222099D01*
Y158780D01*
X221779D01*
Y158940D01*
X221619D01*
Y159100D01*
X221459D01*
Y159260D01*
X221299D01*
Y159420D01*
X221139D01*
Y159580D01*
X220979D01*
Y159740D01*
X220819D01*
Y159900D01*
X220659D01*
Y160060D01*
X220499D01*
Y160220D01*
X220339D01*
Y160380D01*
X220019D01*
Y160540D01*
X219859D01*
Y160700D01*
X219699D01*
Y160860D01*
X219539D01*
Y161020D01*
X219379D01*
Y161180D01*
X219219D01*
Y161340D01*
X219059D01*
Y161500D01*
X218899D01*
Y161660D01*
X218579D01*
Y161820D01*
X218419D01*
Y161980D01*
X218259D01*
Y162140D01*
X217939D01*
Y161980D01*
Y161820D01*
Y161660D01*
Y161500D01*
Y161340D01*
Y161180D01*
Y161020D01*
Y160860D01*
Y160700D01*
Y160540D01*
Y160380D01*
Y160220D01*
Y160060D01*
Y159900D01*
Y159740D01*
Y159580D01*
Y159420D01*
Y159260D01*
Y159100D01*
Y158940D01*
Y158780D01*
Y158620D01*
Y158460D01*
Y158300D01*
Y158140D01*
X218099D01*
Y157980D01*
Y157820D01*
Y157660D01*
Y157500D01*
Y157340D01*
X218259D01*
Y157180D01*
Y157020D01*
Y156860D01*
X218419D01*
Y156700D01*
Y156540D01*
X218579D01*
Y156380D01*
Y156220D01*
X218739D01*
Y156060D01*
X218899D01*
Y155900D01*
X213939D01*
Y156060D01*
X214100D01*
Y156220D01*
Y156380D01*
Y156540D01*
Y156700D01*
Y156860D01*
X213939D01*
Y157020D01*
Y157180D01*
X213779D01*
Y157340D01*
X213619Y157340D01*
Y157500D01*
Y157660D01*
X213459D01*
Y157820D01*
X213299D01*
Y157980D01*
Y158140D01*
X213140D01*
Y158300D01*
X212980D01*
X212980Y158460D01*
X212820D01*
Y158620D01*
Y158780D01*
X212660D01*
Y158940D01*
X212500D01*
X212500Y159100D01*
Y159260D01*
X212340D01*
Y159420D01*
X213299D01*
Y159580D01*
X213939D01*
Y159740D01*
X213779D01*
Y159900D01*
X213619D01*
Y160060D01*
X213299D01*
Y160220D01*
X213140D01*
Y160380D01*
X212980D01*
Y160540D01*
X212660D01*
Y160700D01*
X212500D01*
Y160860D01*
X212340D01*
X212340Y161020D01*
Y161180D01*
Y161340D01*
X212500D01*
Y161500D01*
Y161660D01*
X212500Y161820D01*
X212500Y161980D01*
X212500Y162140D01*
Y162300D01*
X212660D01*
Y162460D01*
Y162620D01*
X212180Y162620D01*
Y162460D01*
X211700D01*
Y162300D01*
X211220Y162300D01*
Y162140D01*
X210740D01*
Y161980D01*
X210100Y161980D01*
Y162140D01*
X209620Y162140D01*
Y162300D01*
X209140D01*
Y162460D01*
X208660D01*
Y162620D01*
X208180D01*
Y162460D01*
Y162300D01*
X208340D01*
Y162140D01*
X208340Y161980D01*
X208340Y161820D01*
X208340Y161660D01*
Y161500D01*
Y161340D01*
X208500D01*
Y161180D01*
Y161020D01*
X208500Y160860D01*
X208340D01*
Y160700D01*
X208180D01*
Y160540D01*
X207860D01*
Y160380D01*
X207700D01*
Y160220D01*
X207540D01*
Y160060D01*
X207220D01*
Y159900D01*
X206900D01*
Y159740D01*
Y159580D01*
X207540D01*
Y159420D01*
X208500D01*
Y159260D01*
X208340D01*
Y159100D01*
X208340Y158940D01*
X208180D01*
Y158780D01*
X208020D01*
Y158620D01*
Y158460D01*
X207860D01*
Y158300D01*
X207700D01*
Y158140D01*
Y157980D01*
X207540D01*
Y157820D01*
X207380Y157820D01*
Y157660D01*
X207220D01*
Y157500D01*
Y157340D01*
X207060Y157340D01*
Y157180D01*
X206900D01*
Y157020D01*
Y156860D01*
Y156700D01*
X206740D01*
Y156540D01*
Y156380D01*
Y156220D01*
Y156060D01*
X206900D01*
Y155900D01*
X193621D01*
Y156060D01*
X193621Y156220D01*
X193781D01*
Y156380D01*
X193940D01*
Y156540D01*
Y156700D01*
X194100D01*
Y156860D01*
X194261D01*
Y157020D01*
Y157180D01*
X194421D01*
Y157340D01*
X194580Y157340D01*
Y157500D01*
Y157660D01*
X194740D01*
Y157820D01*
X194900D01*
Y157980D01*
Y158140D01*
X195060D01*
Y158300D01*
Y158460D01*
X202260Y158460D01*
Y158620D01*
X202580D01*
Y158780D01*
X202740D01*
Y158940D01*
X202900D01*
Y159100D01*
Y159260D01*
Y159420D01*
Y159580D01*
Y159740D01*
X202740D01*
Y159900D01*
X202580D01*
Y160060D01*
X202100D01*
Y160220D01*
X196020D01*
Y160380D01*
X195380D01*
Y160540D01*
X195060D01*
Y160700D01*
X194740D01*
Y160860D01*
X194580D01*
Y161020D01*
X194421D01*
Y161180D01*
X194100D01*
Y161340D01*
Y161500D01*
X193940D01*
Y161660D01*
X193781D01*
X193781Y161820D01*
X193781Y161980D01*
X193621D01*
X193621Y162140D01*
Y162300D01*
Y162460D01*
X193461D01*
Y162620D01*
Y162780D01*
Y162940D01*
Y163100D01*
X193461Y163260D01*
X193461Y163420D01*
X193461Y163580D01*
Y163740D01*
Y163900D01*
X193461Y164060D01*
X193621D01*
Y164220D01*
Y164380D01*
Y164540D01*
X193781D01*
Y164700D01*
Y164860D01*
X193940D01*
X193940Y165020D01*
X194100D01*
Y165180D01*
X194261D01*
Y165340D01*
X194421D01*
X194421Y165500D01*
X194580D01*
Y165660D01*
X194740D01*
Y165820D01*
X195060Y165820D01*
Y165980D01*
X195380D01*
Y166140D01*
X195860D01*
Y166300D01*
X209300Y166300D01*
Y166140D01*
X209140D01*
Y165980D01*
X208980D01*
Y165820D01*
X208820D01*
Y165660D01*
Y165500D01*
X208660D01*
Y165340D01*
X208500D01*
Y165180D01*
X208340D01*
Y165020D01*
X208180D01*
Y164860D01*
Y164700D01*
X208020D01*
Y164540D01*
X207860D01*
Y164380D01*
X207700D01*
Y164220D01*
X207540D01*
Y164060D01*
X207540Y163900D01*
X207380D01*
Y163740D01*
X196660D01*
Y163580D01*
X196500D01*
Y163420D01*
X196340D01*
Y163260D01*
Y163100D01*
X196500D01*
Y162940D01*
Y162780D01*
X196820D01*
Y162620D01*
X202900Y162620D01*
Y162460D01*
X203380D01*
Y162300D01*
X203700D01*
Y162140D01*
X204020Y162140D01*
Y161980D01*
X204180D01*
Y161820D01*
X204340Y161820D01*
Y161660D01*
X204500D01*
Y161500D01*
X204660D01*
Y161340D01*
X204820D01*
Y161180D01*
X204980D01*
Y161020D01*
Y160860D01*
X205140D01*
Y160700D01*
Y160540D01*
X205300D01*
Y160380D01*
Y160220D01*
Y160060D01*
X205460D01*
Y159900D01*
X205300D01*
Y159740D01*
X205620D01*
Y159900D01*
X205780D01*
Y160060D01*
X205940D01*
Y160220D01*
Y160380D01*
X206100D01*
Y160540D01*
X206260D01*
Y160700D01*
X206420D01*
Y160860D01*
Y161020D01*
X206580D01*
Y161180D01*
X206740D01*
Y161340D01*
X206900D01*
Y161500D01*
Y161660D01*
X207060D01*
Y161820D01*
X207220Y161820D01*
X207220Y161980D01*
X207220Y162140D01*
X207380Y162140D01*
Y162300D01*
X207540Y162300D01*
Y162460D01*
X207700D01*
Y162620D01*
Y162780D01*
X207860D01*
Y162940D01*
X208020D01*
Y163100D01*
X208180D01*
Y163260D01*
Y163420D01*
X208340D01*
X208340Y163580D01*
X208500D01*
Y163740D01*
X208660D01*
Y163900D01*
X208660Y164060D01*
X208820D01*
Y164220D01*
X208980D01*
Y164380D01*
Y164540D01*
X209140D01*
X209140Y164700D01*
X209300D01*
X209300Y164860D01*
X209460D01*
Y165020D01*
Y165180D01*
X209620D01*
Y165340D01*
X209780D01*
Y165500D01*
X209940D01*
Y165660D01*
Y165820D01*
X210100D01*
Y165980D01*
X210260D01*
Y166140D01*
X210420D01*
Y166300D01*
X210580Y166300D01*
Y166140D01*
Y165980D01*
X210740D01*
Y165820D01*
X210900Y165820D01*
Y165660D01*
Y165500D01*
X211060D01*
Y165340D01*
X211220D01*
Y165180D01*
X211380D01*
Y165020D01*
Y164860D01*
X211540D01*
Y164700D01*
X211700D01*
X211700Y164540D01*
X211860D01*
Y164380D01*
Y164220D01*
X212020D01*
Y164060D01*
X212180D01*
Y163900D01*
X212340D01*
Y163740D01*
Y163580D01*
X212500D01*
X212500Y163420D01*
X212660D01*
X212660Y163260D01*
X212660Y163100D01*
X212820D01*
Y162940D01*
X212980D01*
Y162780D01*
X213140D01*
Y162620D01*
Y162460D01*
X213299D01*
Y162300D01*
X213459D01*
Y162140D01*
X213619D01*
Y161980D01*
Y161820D01*
X213779Y161820D01*
Y161660D01*
X213939D01*
Y161500D01*
X214100D01*
Y161340D01*
Y161180D01*
X214260D01*
Y161020D01*
X214420D01*
Y160860D01*
Y160700D01*
X214580D01*
Y160540D01*
X214739D01*
Y160380D01*
X214899D01*
Y160220D01*
X215059D01*
Y160060D01*
X215219D01*
Y160220D01*
Y160380D01*
Y160540D01*
Y160700D01*
Y160860D01*
Y161020D01*
Y161180D01*
Y161340D01*
Y161500D01*
Y161660D01*
Y161820D01*
Y161980D01*
Y162140D01*
Y162300D01*
Y162460D01*
Y162620D01*
Y162780D01*
Y162940D01*
Y163100D01*
Y163260D01*
Y163420D01*
Y163580D01*
Y163740D01*
Y163900D01*
Y164060D01*
Y164220D01*
Y164380D01*
Y164540D01*
Y164700D01*
Y164860D01*
X215059D01*
Y165020D01*
X214899D01*
Y165180D01*
X214739D01*
Y165340D01*
X214580D01*
Y165500D01*
X214260D01*
Y165660D01*
X214100D01*
Y165820D01*
X213939D01*
Y165980D01*
X213779D01*
Y166140D01*
X213619D01*
Y166300D01*
X213459D01*
Y166460D01*
X217619D01*
Y166300D01*
D02*
G37*
G36*
X214420Y154780D02*
Y154620D01*
X214420Y154460D01*
Y154300D01*
Y154140D01*
Y153980D01*
Y153820D01*
Y153660D01*
Y153500D01*
Y153340D01*
Y153180D01*
Y153020D01*
Y152860D01*
Y152700D01*
Y152541D01*
Y152381D01*
Y152220D01*
Y152060D01*
Y151900D01*
Y151741D01*
Y151581D01*
Y151420D01*
Y151260D01*
X213619D01*
Y151420D01*
Y151581D01*
Y151741D01*
Y151900D01*
Y152060D01*
Y152220D01*
Y152381D01*
Y152541D01*
Y152700D01*
Y152860D01*
Y153021D01*
Y153180D01*
Y153340D01*
X213459D01*
Y153180D01*
X213299D01*
Y153021D01*
X213140D01*
Y152860D01*
Y152700D01*
X212980D01*
Y152541D01*
Y152381D01*
X212820D01*
Y152220D01*
X212660D01*
Y152060D01*
X212660Y151900D01*
X212500D01*
X212500Y151741D01*
X212500Y151581D01*
X212340D01*
Y151420D01*
Y151260D01*
X211860D01*
Y151420D01*
Y151581D01*
X211700D01*
Y151741D01*
X211540Y151741D01*
Y151900D01*
Y152060D01*
X211380D01*
Y152220D01*
Y152381D01*
X211220D01*
Y152541D01*
X211060D01*
Y152700D01*
Y152860D01*
X210900D01*
Y153021D01*
Y153180D01*
X210740Y153181D01*
Y153340D01*
X210580D01*
Y153180D01*
Y153021D01*
Y152860D01*
Y152700D01*
Y152541D01*
Y152381D01*
Y152220D01*
Y152060D01*
Y151900D01*
Y151741D01*
Y151581D01*
Y151420D01*
Y151260D01*
X209780D01*
Y151420D01*
Y151581D01*
Y151741D01*
Y151900D01*
Y152060D01*
Y152220D01*
Y152381D01*
Y152541D01*
Y152700D01*
Y152860D01*
Y153021D01*
Y153180D01*
Y153340D01*
Y153500D01*
Y153660D01*
Y153820D01*
Y153980D01*
Y154140D01*
Y154300D01*
Y154460D01*
Y154620D01*
Y154780D01*
Y154940D01*
X210580D01*
Y154780D01*
X210740D01*
Y154620D01*
X210900D01*
Y154460D01*
Y154300D01*
X211060D01*
Y154140D01*
Y153980D01*
X211220D01*
Y153820D01*
X211380D01*
Y153660D01*
Y153500D01*
X211540D01*
Y153340D01*
Y153180D01*
X211700D01*
Y153020D01*
X211860D01*
Y152860D01*
Y152700D01*
Y152541D01*
X212180D01*
Y152700D01*
X212340D01*
Y152860D01*
Y153021D01*
X212500D01*
X212500Y153180D01*
X212500Y153340D01*
X212660D01*
X212660Y153500D01*
X212820D01*
Y153660D01*
Y153820D01*
X212980D01*
Y153980D01*
Y154140D01*
X213140D01*
Y154300D01*
X213299D01*
Y154460D01*
Y154620D01*
X213459D01*
Y154780D01*
Y154940D01*
X214420D01*
Y154780D01*
D02*
G37*
G36*
X225139D02*
Y154620D01*
Y154460D01*
Y154300D01*
Y154140D01*
Y153980D01*
Y153820D01*
Y153660D01*
Y153500D01*
Y153340D01*
Y153181D01*
Y153021D01*
Y152860D01*
Y152700D01*
Y152541D01*
Y152381D01*
Y152220D01*
Y152060D01*
Y151900D01*
Y151741D01*
Y151581D01*
Y151420D01*
Y151260D01*
X224019Y151260D01*
Y151420D01*
X223859D01*
Y151581D01*
X223699D01*
Y151741D01*
X223539D01*
Y151900D01*
X223379D01*
Y152060D01*
X223219D01*
Y152220D01*
X223059D01*
Y152381D01*
X222899D01*
Y152541D01*
X222739D01*
Y152700D01*
X222579D01*
Y152860D01*
X222419D01*
Y153021D01*
X222259D01*
X222259Y153180D01*
X222099D01*
X222099Y153340D01*
X221939Y153340D01*
Y153500D01*
X221779D01*
Y153660D01*
X221619D01*
Y153820D01*
X221459D01*
Y153980D01*
X221299D01*
Y153820D01*
Y153660D01*
Y153500D01*
Y153340D01*
Y153180D01*
Y153021D01*
Y152860D01*
Y152700D01*
Y152541D01*
Y152381D01*
Y152220D01*
Y152060D01*
Y151900D01*
Y151741D01*
Y151581D01*
Y151420D01*
Y151260D01*
X220499Y151260D01*
Y151420D01*
Y151581D01*
Y151741D01*
Y151900D01*
Y152060D01*
Y152220D01*
Y152381D01*
Y152541D01*
Y152700D01*
Y152860D01*
Y153021D01*
Y153181D01*
Y153340D01*
Y153500D01*
Y153660D01*
Y153820D01*
Y153980D01*
Y154140D01*
Y154300D01*
Y154460D01*
Y154620D01*
Y154780D01*
Y154940D01*
X221459D01*
Y154780D01*
X221619D01*
Y154620D01*
X221779D01*
X221779Y154460D01*
X221939D01*
Y154300D01*
X222099D01*
X222099Y154140D01*
X222259D01*
Y153980D01*
X222419D01*
Y153820D01*
X222579D01*
Y153660D01*
X222739D01*
Y153500D01*
X222899D01*
X222899Y153340D01*
X223059D01*
X223059Y153180D01*
X223219D01*
Y153021D01*
X223379D01*
Y152860D01*
X223539Y152860D01*
Y152700D01*
X223699D01*
Y152541D01*
X223859D01*
Y152381D01*
X224019D01*
Y152220D01*
X224179D01*
Y152060D01*
X224339D01*
Y152220D01*
Y152381D01*
Y152541D01*
Y152700D01*
Y152860D01*
Y153021D01*
Y153180D01*
Y153340D01*
Y153500D01*
Y153660D01*
Y153820D01*
Y153980D01*
Y154140D01*
Y154300D01*
Y154460D01*
Y154620D01*
Y154780D01*
Y154940D01*
X225139D01*
Y154780D01*
D02*
G37*
G36*
X200500D02*
Y154620D01*
Y154460D01*
Y154300D01*
Y154140D01*
Y153980D01*
Y153820D01*
Y153660D01*
Y153500D01*
Y153340D01*
Y153181D01*
Y153021D01*
Y152860D01*
Y152700D01*
Y152541D01*
Y152381D01*
Y152220D01*
Y152060D01*
Y151900D01*
X204340Y151900D01*
Y151741D01*
X204180Y151741D01*
Y151581D01*
Y151420D01*
X204340D01*
Y151260D01*
X199700D01*
Y151420D01*
X199540D01*
Y151581D01*
Y151741D01*
Y151900D01*
Y152060D01*
Y152220D01*
Y152381D01*
Y152541D01*
Y152700D01*
Y152860D01*
Y153021D01*
Y153180D01*
Y153340D01*
Y153500D01*
Y153660D01*
Y153820D01*
Y153980D01*
Y154140D01*
Y154300D01*
Y154460D01*
Y154620D01*
Y154780D01*
Y154940D01*
X200500D01*
Y154780D01*
D02*
G37*
G36*
X230579D02*
Y154620D01*
Y154460D01*
Y154300D01*
X228979D01*
Y154140D01*
X228659D01*
Y153980D01*
Y153820D01*
Y153660D01*
Y153500D01*
Y153340D01*
Y153180D01*
Y153020D01*
Y152860D01*
Y152700D01*
Y152541D01*
Y152381D01*
Y152220D01*
Y152060D01*
Y151900D01*
Y151741D01*
Y151581D01*
Y151420D01*
X228819D01*
Y151260D01*
X227859D01*
Y151420D01*
Y151581D01*
X227859Y151741D01*
X227859Y151900D01*
X227859Y152060D01*
Y152220D01*
Y152381D01*
Y152541D01*
Y152700D01*
Y152860D01*
Y153021D01*
X227859Y153180D01*
X227859Y153340D01*
X227859Y153500D01*
Y153660D01*
Y153820D01*
Y153980D01*
Y154140D01*
X227699D01*
X227699Y154300D01*
X225939D01*
Y154460D01*
Y154620D01*
Y154780D01*
Y154940D01*
X230579D01*
Y154780D01*
D02*
G37*
G36*
X209300D02*
X209140D01*
Y154620D01*
X209140Y154460D01*
X209300D01*
Y154300D01*
X205620D01*
Y154140D01*
X205460D01*
Y153980D01*
X205300Y153980D01*
Y153820D01*
Y153660D01*
Y153500D01*
Y153340D01*
X208500D01*
X208500Y153180D01*
X208500Y153021D01*
Y152860D01*
Y152700D01*
X205300D01*
Y152541D01*
Y152381D01*
Y152220D01*
Y152060D01*
X205460D01*
Y151900D01*
X209300Y151900D01*
Y151741D01*
X209140D01*
Y151581D01*
Y151420D01*
X209300D01*
Y151260D01*
X204660D01*
Y151420D01*
X204500D01*
Y151581D01*
Y151741D01*
Y151900D01*
Y152060D01*
Y152220D01*
Y152381D01*
Y152541D01*
Y152700D01*
Y152860D01*
Y153021D01*
Y153180D01*
Y153340D01*
Y153500D01*
Y153660D01*
Y153820D01*
Y153980D01*
Y154140D01*
Y154300D01*
Y154460D01*
Y154620D01*
Y154780D01*
X204820D01*
Y154940D01*
X209300D01*
Y154780D01*
D02*
G37*
G36*
X199060D02*
Y154620D01*
X199060Y154460D01*
Y154300D01*
X195380D01*
Y154140D01*
X195220Y154140D01*
Y153980D01*
Y153820D01*
Y153660D01*
Y153500D01*
Y153340D01*
X198260D01*
X198260Y153180D01*
X198260Y153021D01*
Y152860D01*
Y152700D01*
X195220D01*
Y152541D01*
Y152381D01*
Y152220D01*
Y152060D01*
Y151900D01*
X199060D01*
Y151741D01*
Y151581D01*
Y151420D01*
Y151260D01*
X194421D01*
Y151420D01*
Y151581D01*
Y151741D01*
Y151900D01*
Y152060D01*
Y152220D01*
Y152381D01*
Y152541D01*
Y152700D01*
Y152860D01*
Y153020D01*
Y153180D01*
Y153340D01*
Y153500D01*
Y153660D01*
Y153820D01*
Y153980D01*
Y154140D01*
Y154300D01*
Y154460D01*
X194421Y154620D01*
Y154780D01*
X194740D01*
Y154940D01*
X199060D01*
Y154780D01*
D02*
G37*
G36*
X220019D02*
Y154620D01*
Y154460D01*
Y154300D01*
X216339D01*
Y154140D01*
X216019D01*
Y153980D01*
Y153820D01*
Y153660D01*
Y153500D01*
Y153340D01*
X219219Y153340D01*
Y153180D01*
Y153020D01*
Y152860D01*
Y152700D01*
X216019D01*
Y152541D01*
Y152381D01*
Y152220D01*
Y152060D01*
X216179D01*
Y151900D01*
X220019D01*
Y151741D01*
Y151581D01*
Y151420D01*
Y151260D01*
X215379Y151260D01*
Y151420D01*
X215219Y151420D01*
Y151581D01*
Y151741D01*
Y151900D01*
Y152060D01*
Y152220D01*
Y152381D01*
Y152541D01*
Y152700D01*
Y152860D01*
Y153021D01*
Y153180D01*
Y153340D01*
Y153500D01*
Y153660D01*
Y153820D01*
Y153980D01*
Y154140D01*
Y154300D01*
Y154460D01*
Y154620D01*
Y154780D01*
X215539D01*
Y154940D01*
X220019D01*
Y154780D01*
D02*
G37*
D10*
X154234Y75721D02*
X153446D01*
X154234D01*
X145823Y109627D02*
X145035D01*
X145823D01*
X222670Y228852D02*
X221883D01*
X222670D01*
X198761Y149580D02*
X197973D01*
X198761D01*
X149991Y203040D02*
X149204D01*
X149991D01*
X147415Y193887D02*
X146628D01*
X147415D01*
X111194Y191138D02*
X110406D01*
X111194D01*
X63000Y186200D02*
Y216200D01*
Y186200D02*
X73000D01*
Y216200D01*
X63000D02*
X73000D01*
X49000Y59100D02*
Y69100D01*
X139000D01*
Y59100D02*
Y69100D01*
X49000Y59100D02*
X139000D01*
X94800Y224600D02*
Y234600D01*
X184800D01*
Y224600D02*
Y234600D01*
X94800Y224600D02*
X184800D01*
X159961Y66800D02*
X164685D01*
X152516Y111989D02*
X154091D01*
X152516Y107265D02*
X154091D01*
X153500Y117095D02*
Y121819D01*
X195300Y234100D02*
X215300D01*
X195300Y224100D02*
Y234100D01*
Y224100D02*
X215300D01*
Y234100D01*
X192800Y216738D02*
Y221462D01*
X134105Y78600D02*
X138830D01*
X76095Y75713D02*
X79244D01*
X76095D02*
Y79256D01*
X84756Y75713D02*
X87906D01*
Y79256D01*
X98138Y78600D02*
X102862D01*
X46638Y78600D02*
X51362D01*
X62138Y78600D02*
X66862D01*
X153500Y97474D02*
Y102198D01*
Y146881D02*
Y151605D01*
Y166738D02*
Y171462D01*
Y156809D02*
Y161534D01*
Y136952D02*
Y141676D01*
X153400Y127023D02*
Y131748D01*
X159100Y216738D02*
Y221462D01*
X141800Y216738D02*
Y221462D01*
X176200Y216638D02*
Y221362D01*
X172138Y201100D02*
X176862D01*
X124700Y216738D02*
Y221462D01*
X135100Y168100D02*
Y178100D01*
X75100Y168100D02*
Y178100D01*
X135100D01*
X75100Y168100D02*
X135100D01*
X63000Y221900D02*
X73000D01*
X63000D02*
Y241900D01*
X73000D01*
Y221900D02*
Y241900D01*
D11*
X180591Y187100D02*
X180047Y187849D01*
X179167Y187563D01*
Y186637D01*
X180047Y186351D01*
X180591Y187100D01*
D12*
X89579Y82898D02*
X88841Y83324D01*
Y82472D01*
X89579Y82898D01*
D13*
X125480Y71573D02*
X124693D01*
X125480D01*
X160880Y93290D02*
X160093D01*
X160880D01*
D14*
X156202Y62653D02*
Y69346D01*
X143998Y62653D02*
Y69346D01*
X144391D01*
X143998Y62653D02*
X144391D01*
X155809D02*
X156202D01*
X155809Y69346D02*
X156202D01*
X224835Y219797D02*
Y253655D01*
X241765Y219797D02*
Y253655D01*
X239284D02*
X241765D01*
X224835D02*
X227316D01*
X239284Y219797D02*
X241765D01*
X224835D02*
X227316D01*
X184981Y146667D02*
X207619D01*
Y117533D02*
Y146667D01*
X184981Y117533D02*
X207619D01*
X184981D02*
Y146667D01*
X61000Y93061D02*
X137024D01*
Y163927D01*
X61000D02*
X137024D01*
X61000Y93061D02*
Y163927D01*
X36630Y93061D02*
X61000D01*
X36630D02*
Y163927D01*
X61000D01*
X184922Y197139D02*
Y204817D01*
X209528D02*
X241615D01*
X184922Y169384D02*
Y176667D01*
Y204817D02*
X189450D01*
X184922Y169384D02*
X241615D01*
Y204817D01*
X115441Y72951D02*
Y75706D01*
Y81612D02*
Y84368D01*
X118591D01*
X115441Y72951D02*
X118591D01*
X156353Y83644D02*
X159109D01*
X147691D02*
X150447D01*
X147691D02*
Y86794D01*
X159109Y83644D02*
Y86794D01*
X221800Y118104D02*
X241997D01*
Y146096D01*
X221800D02*
X241997D01*
X211013Y118104D02*
Y146096D01*
X120683Y205265D02*
X138400D01*
X120683Y193335D02*
X138400D01*
X85426Y190961D02*
X101174D01*
X85426Y211039D02*
X101174D01*
D15*
X130800Y178600D02*
Y185100D01*
X174500Y136600D02*
Y178600D01*
Y115300D02*
Y136500D01*
X174500Y115300D02*
X174500D01*
X181300Y136500D02*
Y185100D01*
X181200Y136500D02*
X181300D01*
X181200Y115300D02*
Y136500D01*
Y111600D02*
Y115300D01*
Y111600D02*
X181300D01*
X36500Y178500D02*
Y178600D01*
Y178500D02*
X110000D01*
Y178300D02*
Y178500D01*
Y178300D02*
X130800D01*
Y178600D01*
X174500D01*
X130800Y185100D02*
X181300D01*
X110000D02*
X130800D01*
X59000D02*
X110000D01*
X130700D02*
X132700D01*
X174500Y136500D02*
X181200D01*
X174500Y115300D02*
X181200D01*
X110000Y178500D02*
Y185100D01*
X223300Y244600D02*
Y260100D01*
X235800D01*
X59000Y185100D02*
Y244600D01*
X174500Y51600D02*
Y115300D01*
X174000Y51600D02*
X174500D01*
X59000Y244600D02*
X222800Y244600D01*
X223300D01*
X36500Y51600D02*
X174000D01*
X36500D02*
Y178600D01*
X235800Y260100D02*
X241800Y254100D01*
Y115600D02*
Y254100D01*
X235300Y109100D02*
X241800Y115600D01*
X181300Y111600D02*
X183800Y109100D01*
X234300D01*
X235300D01*
X74900Y238099D02*
Y234100D01*
X76899D01*
X77566Y234766D01*
Y235433D01*
X76899Y236099D01*
X74900D01*
X76899D01*
X77566Y236766D01*
Y237432D01*
X76899Y238099D01*
X74900D01*
X78899Y236099D02*
X81564D01*
X80232Y237432D02*
Y234766D01*
X41066Y173899D02*
X38400D01*
Y169900D01*
X41066D01*
X38400Y171899D02*
X39733D01*
X42399Y173899D02*
Y169900D01*
X44398D01*
X45064Y170566D01*
Y171233D01*
X44398Y171899D01*
X42399D01*
X44398D01*
X45064Y172566D01*
Y173232D01*
X44398Y173899D01*
X42399D01*
X50396D02*
Y171233D01*
X51729Y169900D01*
X53062Y171233D01*
Y173899D01*
X57061Y169900D02*
X54395D01*
X57061Y172566D01*
Y173232D01*
X56394Y173899D01*
X55061D01*
X54395Y173232D01*
X58394Y169900D02*
Y170566D01*
X59060D01*
Y169900D01*
X58394D01*
X61726Y173232D02*
X62392Y173899D01*
X63725D01*
X64392Y173232D01*
Y170566D01*
X63725Y169900D01*
X62392D01*
X61726Y170566D01*
Y173232D01*
X144499Y237600D02*
X142500D01*
X144499Y239599D01*
Y240099D01*
X144000Y240599D01*
X143000D01*
X142500Y240099D01*
X145499Y237600D02*
X147498Y239599D01*
X148498Y238100D02*
X148998Y237600D01*
X149998D01*
X150497Y238100D01*
Y240099D01*
X149998Y240599D01*
X148998D01*
X148498Y240099D01*
Y239599D01*
X148998Y239100D01*
X150497D01*
X151497Y237600D02*
X153496Y239599D01*
X156495Y237600D02*
X154496D01*
X156495Y239599D01*
Y240099D01*
X155996Y240599D01*
X154996D01*
X154496Y240099D01*
X157495D02*
X157995Y240599D01*
X158995D01*
X159494Y240099D01*
Y238100D01*
X158995Y237600D01*
X157995D01*
X157495Y238100D01*
Y240099D01*
X162494Y237600D02*
X160494D01*
X162494Y239599D01*
Y240099D01*
X161994Y240599D01*
X160994D01*
X160494Y240099D01*
X164993Y237600D02*
Y240599D01*
X163493Y239100D01*
X165493D01*
X116399Y240699D02*
X114400D01*
Y237700D01*
X116399D01*
X114400Y239199D02*
X115400D01*
X117399Y240699D02*
Y237700D01*
X118899D01*
X119398Y238200D01*
Y238700D01*
X118899Y239199D01*
X117399D01*
X118899D01*
X119398Y239699D01*
Y240199D01*
X118899Y240699D01*
X117399D01*
X123397D02*
Y238700D01*
X124397Y237700D01*
X125396Y238700D01*
Y240699D01*
X128395Y237700D02*
X126396D01*
X128395Y239699D01*
Y240199D01*
X127896Y240699D01*
X126896D01*
X126396Y240199D01*
X129395Y237700D02*
Y238200D01*
X129895D01*
Y237700D01*
X129395D01*
X131894Y240199D02*
X132394Y240699D01*
X133394D01*
X133894Y240199D01*
Y238200D01*
X133394Y237700D01*
X132394D01*
X131894Y238200D01*
Y240199D01*
X194800Y239599D02*
Y235600D01*
X196799D01*
X197466Y236266D01*
Y236933D01*
X196799Y237599D01*
X194800D01*
X196799D01*
X197466Y238266D01*
Y238932D01*
X196799Y239599D01*
X194800D01*
X198799D02*
X201465D01*
Y238932D01*
X198799Y236266D01*
Y235600D01*
X201465D01*
X202797Y237599D02*
X205463D01*
X204130Y238932D02*
Y236266D01*
X74000Y214100D02*
Y218099D01*
X75999D01*
X76666Y217432D01*
Y216099D01*
X75999Y215433D01*
X74000D01*
X77999Y218099D02*
X80664D01*
Y217432D01*
X77999Y214766D01*
Y214100D01*
X40300Y61500D02*
Y65499D01*
X42299D01*
X42966Y64832D01*
Y63499D01*
X42299Y62833D01*
X40300D01*
X46964Y61500D02*
X44299D01*
X46964Y64166D01*
Y64832D01*
X46298Y65499D01*
X44965D01*
X44299Y64832D01*
X95400Y238000D02*
Y241999D01*
X97399D01*
X98066Y241332D01*
Y239999D01*
X97399Y239333D01*
X95400D01*
X99399Y238000D02*
X100732D01*
X100065D01*
Y241999D01*
X99399Y241332D01*
X164989Y78409D02*
X164322Y79076D01*
X162989D01*
X162323Y78409D01*
Y75743D01*
X162989Y75077D01*
X164322D01*
X164989Y75743D01*
X168321Y75077D02*
Y79076D01*
X166322Y77076D01*
X168988D01*
X142200Y78199D02*
Y74866D01*
X142867Y74200D01*
X144199D01*
X144866Y74866D01*
Y78199D01*
X146199Y74200D02*
X147532D01*
X146865D01*
Y78199D01*
X146199Y77532D01*
X161400Y117200D02*
Y121199D01*
X163399D01*
X164066Y120532D01*
Y119199D01*
X163399Y118533D01*
X161400D01*
X162733D02*
X164066Y117200D01*
X165399D02*
X166732D01*
X166065D01*
Y121199D01*
X165399Y120532D01*
X168731D02*
X169397Y121199D01*
X170730D01*
X171397Y120532D01*
Y119866D01*
X170730Y119199D01*
X171397Y118533D01*
Y117867D01*
X170730Y117200D01*
X169397D01*
X168731Y117867D01*
Y118533D01*
X169397Y119199D01*
X168731Y119866D01*
Y120532D01*
X169397Y119199D02*
X170730D01*
X161400Y111699D02*
Y107700D01*
X163399D01*
X164066Y108367D01*
Y111032D01*
X163399Y111699D01*
X161400D01*
X165399Y107700D02*
X166732D01*
X166065D01*
Y111699D01*
X165399Y111032D01*
X220466Y241332D02*
X219799Y241999D01*
X218466D01*
X217800Y241332D01*
Y240666D01*
X218466Y239999D01*
X219799D01*
X220466Y239333D01*
Y238666D01*
X219799Y238000D01*
X218466D01*
X217800Y238666D01*
X221799Y238000D02*
X223132D01*
X222465D01*
Y241999D01*
X221799Y241332D01*
X70001Y74969D02*
X73334D01*
X74000Y75635D01*
Y76968D01*
X73334Y77635D01*
X70001D01*
Y81633D02*
Y78967D01*
X72001D01*
X71334Y80300D01*
Y80967D01*
X72001Y81633D01*
X73334D01*
X74000Y80967D01*
Y79634D01*
X73334Y78967D01*
X152656Y191799D02*
Y188467D01*
X153323Y187800D01*
X154656D01*
X155322Y188467D01*
Y191799D01*
X156655Y191132D02*
X157322Y191799D01*
X158654D01*
X159321Y191132D01*
Y190466D01*
X158654Y189799D01*
X157988D01*
X158654D01*
X159321Y189133D01*
Y188467D01*
X158654Y187800D01*
X157322D01*
X156655Y188467D01*
X79400Y190899D02*
Y187566D01*
X80066Y186900D01*
X81399D01*
X82066Y187566D01*
Y190899D01*
X86064Y186900D02*
X83399D01*
X86064Y189566D01*
Y190232D01*
X85398Y190899D01*
X84065D01*
X83399Y190232D01*
X226466Y115932D02*
X225799Y116599D01*
X224466D01*
X223800Y115932D01*
Y115266D01*
X224466Y114599D01*
X225799D01*
X226466Y113933D01*
Y113267D01*
X225799Y112600D01*
X224466D01*
X223800Y113267D01*
X227799Y116599D02*
Y112600D01*
X229132Y113933D01*
X230465Y112600D01*
Y116599D01*
X231797Y112600D02*
X233130D01*
X232464D01*
Y116599D01*
X231797Y115932D01*
X161500Y137514D02*
Y141513D01*
X163499D01*
X164166Y140847D01*
Y139514D01*
X163499Y138847D01*
X161500D01*
X162833D02*
X164166Y137514D01*
X165499D02*
X166832D01*
X166165D01*
Y141513D01*
X165499Y140847D01*
X168831Y141513D02*
X171497D01*
Y140847D01*
X168831Y138181D01*
Y137514D01*
X161400Y127386D02*
Y131384D01*
X163399D01*
X164066Y130718D01*
Y129385D01*
X163399Y128719D01*
X161400D01*
X162733D02*
X164066Y127386D01*
X165399D02*
X166732D01*
X166065D01*
Y131384D01*
X165399Y130718D01*
X171397Y131384D02*
X170064Y130718D01*
X168731Y129385D01*
Y128052D01*
X169397Y127386D01*
X170730D01*
X171397Y128052D01*
Y128719D01*
X170730Y129385D01*
X168731D01*
X44000Y74100D02*
X40001D01*
Y76099D01*
X40668Y76766D01*
X42001D01*
X42667Y76099D01*
Y74100D01*
Y75433D02*
X44000Y76766D01*
Y78099D02*
Y79432D01*
Y78765D01*
X40001D01*
X40668Y78099D01*
X40001Y84097D02*
Y81431D01*
X42001D01*
X41334Y82764D01*
Y83430D01*
X42001Y84097D01*
X43334D01*
X44000Y83430D01*
Y82097D01*
X43334Y81431D01*
X59500Y73600D02*
X55501D01*
Y75599D01*
X56168Y76266D01*
X57501D01*
X58167Y75599D01*
Y73600D01*
Y74933D02*
X59500Y76266D01*
Y77599D02*
Y78932D01*
Y78265D01*
X55501D01*
X56168Y77599D01*
X59500Y82930D02*
X55501D01*
X57501Y80931D01*
Y83597D01*
X131967Y75100D02*
X127969D01*
Y77099D01*
X128635Y77766D01*
X129968D01*
X130635Y77099D01*
Y75100D01*
Y76433D02*
X131967Y77766D01*
Y79099D02*
Y80432D01*
Y79765D01*
X127969D01*
X128635Y79099D01*
Y82431D02*
X127969Y83097D01*
Y84430D01*
X128635Y85097D01*
X129302D01*
X129968Y84430D01*
Y83764D01*
Y84430D01*
X130635Y85097D01*
X131301D01*
X131967Y84430D01*
Y83097D01*
X131301Y82431D01*
X161500Y147243D02*
Y151242D01*
X163499D01*
X164166Y150575D01*
Y149242D01*
X163499Y148576D01*
X161500D01*
X162833D02*
X164166Y147243D01*
X165499D02*
X166832D01*
X166165D01*
Y151242D01*
X165499Y150575D01*
X171497Y147243D02*
X168831D01*
X171497Y149909D01*
Y150575D01*
X170830Y151242D01*
X169497D01*
X168831Y150575D01*
X161500Y167100D02*
Y171099D01*
X163499D01*
X164166Y170432D01*
Y169099D01*
X163499Y168433D01*
X161500D01*
X162833D02*
X164166Y167100D01*
X165499D02*
X166832D01*
X166165D01*
Y171099D01*
X165499Y170432D01*
X168831Y167100D02*
X170164D01*
X169497D01*
Y171099D01*
X168831Y170432D01*
X161500Y157171D02*
Y161170D01*
X163499D01*
X164166Y160504D01*
Y159171D01*
X163499Y158504D01*
X161500D01*
X162833D02*
X164166Y157171D01*
X165499D02*
X166832D01*
X166165D01*
Y161170D01*
X165499Y160504D01*
X168831D02*
X169497Y161170D01*
X170830D01*
X171497Y160504D01*
Y157838D01*
X170830Y157171D01*
X169497D01*
X168831Y157838D01*
Y160504D01*
X95500Y75100D02*
X91501D01*
Y77099D01*
X92168Y77766D01*
X93501D01*
X94167Y77099D01*
Y75100D01*
Y76433D02*
X95500Y77766D01*
X94834Y79099D02*
X95500Y79765D01*
Y81098D01*
X94834Y81765D01*
X92168D01*
X91501Y81098D01*
Y79765D01*
X92168Y79099D01*
X92834D01*
X93501Y79765D01*
Y81765D01*
X161500Y97836D02*
Y101835D01*
X163499D01*
X164166Y101168D01*
Y99835D01*
X163499Y99169D01*
X161500D01*
X162833D02*
X164166Y97836D01*
X168165Y101835D02*
X166832Y101168D01*
X165499Y99835D01*
Y98502D01*
X166165Y97836D01*
X167498D01*
X168165Y98502D01*
Y99169D01*
X167498Y99835D01*
X165499D01*
X171400Y188600D02*
Y192599D01*
X173399D01*
X174066Y191932D01*
Y190599D01*
X173399Y189933D01*
X171400D01*
X172733D02*
X174066Y188600D01*
X175399Y191932D02*
X176065Y192599D01*
X177398D01*
X178065Y191932D01*
Y191266D01*
X177398Y190599D01*
X176732D01*
X177398D01*
X178065Y189933D01*
Y189267D01*
X177398Y188600D01*
X176065D01*
X175399Y189267D01*
X121200Y210600D02*
Y214599D01*
X123199D01*
X123866Y213932D01*
Y212599D01*
X123199Y211933D01*
X121200D01*
X122533D02*
X123866Y210600D01*
X127865D02*
X125199D01*
X127865Y213266D01*
Y213932D01*
X127198Y214599D01*
X125865D01*
X125199Y213932D01*
X173700Y210600D02*
Y214599D01*
X175699D01*
X176366Y213932D01*
Y212599D01*
X175699Y211933D01*
X173700D01*
X175033D02*
X176366Y210600D01*
X177699D02*
X179032D01*
X178365D01*
Y214599D01*
X177699Y213932D01*
X108834Y77825D02*
X106168D01*
X105501Y77159D01*
Y75826D01*
X106168Y75159D01*
X108834D01*
X109500Y75826D01*
Y77159D01*
X108167Y76492D02*
X109500Y77825D01*
Y77159D02*
X108834Y77825D01*
X106168Y79158D02*
X105501Y79824D01*
Y81157D01*
X106168Y81824D01*
X106834D01*
X107501Y81157D01*
Y80491D01*
Y81157D01*
X108167Y81824D01*
X108834D01*
X109500Y81157D01*
Y79824D01*
X108834Y79158D01*
X164066Y89370D02*
Y92036D01*
X163399Y92702D01*
X162066D01*
X161400Y92036D01*
Y89370D01*
X162066Y88703D01*
X163399D01*
X162733Y90036D02*
X164066Y88703D01*
X163399D02*
X164066Y89370D01*
X168064Y88703D02*
X165399D01*
X168064Y91369D01*
Y92036D01*
X167398Y92702D01*
X166065D01*
X165399Y92036D01*
X119207Y187967D02*
Y190632D01*
X118541Y191299D01*
X117208D01*
X116541Y190632D01*
Y187967D01*
X117208Y187300D01*
X118541D01*
X117874Y188633D02*
X119207Y187300D01*
X118541D02*
X119207Y187967D01*
X120540Y187300D02*
X121873D01*
X121206D01*
Y191299D01*
X120540Y190632D01*
X185800Y112100D02*
Y116099D01*
X187799D01*
X188466Y115432D01*
Y114099D01*
X187799Y113433D01*
X185800D01*
X192464Y116099D02*
X191132Y115432D01*
X189799Y114099D01*
Y112767D01*
X190465Y112100D01*
X191798D01*
X192464Y112767D01*
Y113433D01*
X191798Y114099D01*
X189799D01*
X74800Y239200D02*
Y243199D01*
X76799D01*
X77466Y242532D01*
Y241199D01*
X76799Y240533D01*
X74800D01*
X81464Y243199D02*
X78799D01*
Y241199D01*
X80132Y241866D01*
X80798D01*
X81464Y241199D01*
Y239866D01*
X80798Y239200D01*
X79465D01*
X78799Y239866D01*
X66700Y172900D02*
Y176899D01*
X68699D01*
X69366Y176232D01*
Y174899D01*
X68699Y174233D01*
X66700D01*
X72698Y172900D02*
Y176899D01*
X70699Y174899D01*
X73365D01*
X187600Y225500D02*
Y229499D01*
X189599D01*
X190266Y228832D01*
Y227499D01*
X189599Y226833D01*
X187600D01*
X191599Y228832D02*
X192265Y229499D01*
X193598D01*
X194264Y228832D01*
Y228166D01*
X193598Y227499D01*
X192932D01*
X193598D01*
X194264Y226833D01*
Y226166D01*
X193598Y225500D01*
X192265D01*
X191599Y226166D01*
X56166Y91099D02*
X54833D01*
X55499D01*
Y87766D01*
X54833Y87100D01*
X54166D01*
X53500Y87766D01*
X60164Y87100D02*
X57499D01*
X60164Y89766D01*
Y90432D01*
X59498Y91099D01*
X58165D01*
X57499Y90432D01*
X184966Y211599D02*
X183633D01*
X184299D01*
Y208266D01*
X183633Y207600D01*
X182966D01*
X182300Y208266D01*
X186299Y207600D02*
X187632D01*
X186965D01*
Y211599D01*
X186299Y210932D01*
X140966Y213932D02*
X140299Y214599D01*
X138967D01*
X138300Y213932D01*
Y211266D01*
X138967Y210600D01*
X140299D01*
X140966Y211266D01*
X142299Y213932D02*
X142965Y214599D01*
X144298D01*
X144965Y213932D01*
Y213266D01*
X144298Y212599D01*
X143632D01*
X144298D01*
X144965Y211933D01*
Y211266D01*
X144298Y210600D01*
X142965D01*
X142299Y211266D01*
X158516Y213932D02*
X157849Y214599D01*
X156517D01*
X155850Y213932D01*
Y211266D01*
X156517Y210600D01*
X157849D01*
X158516Y211266D01*
X162514Y210600D02*
X159849D01*
X162514Y213266D01*
Y213932D01*
X161848Y214599D01*
X160515D01*
X159849Y213932D01*
X203966Y220432D02*
X203299Y221099D01*
X201967D01*
X201300Y220432D01*
Y217766D01*
X201967Y217100D01*
X203299D01*
X203966Y217766D01*
X205299Y217100D02*
X206632D01*
X205965D01*
Y221099D01*
X205299Y220432D01*
M02*
