G04*
G04 #@! TF.GenerationSoftware,Altium Limited,Altium Designer,20.0.2 (26)*
G04*
G04 Layer_Color=32768*
%FSLAX25Y25*%
%MOIN*%
G70*
G01*
G75*
%ADD88C,0.00394*%
%ADD89C,0.00197*%
%ADD90C,0.00200*%
D88*
X163831Y95643D02*
X167769D01*
X165800Y93675D02*
Y97612D01*
X162060Y88753D02*
Y102533D01*
X169540Y88753D02*
Y102533D01*
X162060D02*
X169540D01*
X162060Y88753D02*
X169540D01*
X151131Y95643D02*
X155069D01*
X153100Y93675D02*
Y97612D01*
X149360Y88753D02*
Y102533D01*
X156840Y88753D02*
Y102533D01*
X149360D02*
X156840D01*
X149360Y88753D02*
X156840D01*
X162060Y155890D02*
X169540D01*
X162060Y142110D02*
X169540D01*
X162060D02*
Y155890D01*
X169540Y142110D02*
Y155890D01*
X165800Y147031D02*
Y150969D01*
X163831Y149000D02*
X167769D01*
X149360Y142110D02*
X156840D01*
X149360Y155890D02*
X156840D01*
Y142110D02*
Y155890D01*
X149360Y142110D02*
Y155890D01*
X153100Y147031D02*
Y150969D01*
X151131Y149000D02*
X155069D01*
X158583Y73690D02*
X166063D01*
X158583Y59910D02*
X166063D01*
Y73690D01*
X158583Y59910D02*
Y73690D01*
X162323Y64832D02*
Y68769D01*
X160354Y66800D02*
X164292D01*
X146610Y115717D02*
Y123197D01*
X160390Y115717D02*
Y123197D01*
X146610D02*
X160390D01*
X146610Y115717D02*
X160390D01*
X151532Y119457D02*
X155468D01*
X153500Y117489D02*
Y121426D01*
X192800Y217131D02*
Y221069D01*
X190831Y219100D02*
X194769D01*
X185910Y222840D02*
X199690D01*
X185910Y215360D02*
X199690D01*
X185910D02*
Y222840D01*
X199690Y215360D02*
Y222840D01*
X134499Y78600D02*
X138436D01*
X136468Y76631D02*
Y80568D01*
X132727Y71710D02*
Y85490D01*
X140208Y71710D02*
Y85490D01*
X132727Y71710D02*
X140208D01*
X132727Y85490D02*
X140208D01*
X80032Y78469D02*
X83969D01*
X82000Y76500D02*
Y80437D01*
X75110Y70792D02*
Y86146D01*
X88890Y70792D02*
Y86146D01*
X75110Y70792D02*
X88890D01*
X75110Y86146D02*
X88890D01*
X98532Y78600D02*
X102469D01*
X100500Y76631D02*
Y80568D01*
X96760Y71710D02*
Y85490D01*
X104240Y71710D02*
Y85490D01*
X96760Y71710D02*
X104240D01*
X96760Y85490D02*
X104240D01*
X47032Y78600D02*
X50968D01*
X49000Y76631D02*
Y80568D01*
X52740Y71710D02*
Y85490D01*
X45260Y71710D02*
Y85490D01*
X52740D01*
X45260Y71710D02*
X52740D01*
X62532Y78600D02*
X66469D01*
X64500Y76631D02*
Y80568D01*
X60760Y71710D02*
Y85490D01*
X68240Y71710D02*
Y85490D01*
X60760Y71710D02*
X68240D01*
X60760Y85490D02*
X68240D01*
X153500Y97867D02*
Y101804D01*
X151532Y99836D02*
X155468D01*
X146610Y96096D02*
X160390D01*
X146610Y103576D02*
X160390D01*
Y96096D02*
Y103576D01*
X146610Y96096D02*
Y103576D01*
Y145503D02*
Y152983D01*
X160390Y145503D02*
Y152983D01*
X146610D02*
X160390D01*
X146610Y145503D02*
X160390D01*
X151532Y149243D02*
X155468D01*
X153500Y147274D02*
Y151211D01*
X146610Y165360D02*
Y172840D01*
X160390Y165360D02*
Y172840D01*
X146610D02*
X160390D01*
X146610Y165360D02*
X160390D01*
X151532Y169100D02*
X155468D01*
X153500Y167131D02*
Y171068D01*
X146610Y155431D02*
Y162911D01*
X160390Y155431D02*
Y162911D01*
X146610D02*
X160390D01*
X146610Y155431D02*
X160390D01*
X151532Y159171D02*
X155468D01*
X153500Y157203D02*
Y161140D01*
X146610Y135574D02*
Y143054D01*
X160390Y135574D02*
Y143054D01*
X146610D02*
X160390D01*
X146610Y135574D02*
X160390D01*
X151532Y139314D02*
X155468D01*
X153500Y137346D02*
Y141283D01*
X146510Y125645D02*
Y133126D01*
X160290Y125645D02*
Y133126D01*
X146510D02*
X160290D01*
X146510Y125645D02*
X160290D01*
X151432Y129386D02*
X155368D01*
X153400Y127417D02*
Y131354D01*
X152210Y215360D02*
Y222840D01*
X165990Y215360D02*
Y222840D01*
X152210D02*
X165990D01*
X152210Y215360D02*
X165990D01*
X157132Y219100D02*
X161068D01*
X159100Y217131D02*
Y221069D01*
X134910Y215360D02*
Y222840D01*
X148690Y215360D02*
Y222840D01*
X134910D02*
X148690D01*
X134910Y215360D02*
X148690D01*
X139831Y219100D02*
X143769D01*
X141800Y217131D02*
Y221069D01*
X169310Y215260D02*
Y222740D01*
X183090Y215260D02*
Y222740D01*
X169310D02*
X183090D01*
X169310Y215260D02*
X183090D01*
X174232Y219000D02*
X178168D01*
X176200Y217032D02*
Y220969D01*
X170760Y194210D02*
X178240D01*
X170760Y207990D02*
X178240D01*
X170760Y194210D02*
Y207990D01*
X178240Y194210D02*
Y207990D01*
X174500Y199132D02*
Y203068D01*
X172531Y201100D02*
X176469D01*
X117810Y215360D02*
Y222840D01*
X131590Y215360D02*
Y222840D01*
X117810D02*
X131590D01*
X117810Y215360D02*
X131590D01*
X122731Y219100D02*
X126669D01*
X124700Y217131D02*
Y221069D01*
D89*
X148873Y106494D02*
X170527D01*
X148873Y135706D02*
X170527D01*
Y106494D02*
Y135706D01*
X148873Y106494D02*
Y135706D01*
X157187Y61669D02*
Y70331D01*
X156006D02*
X157187D01*
X156006D02*
Y74307D01*
X144194D02*
X156006D01*
X144194Y70331D02*
Y74307D01*
X143013Y70331D02*
X144194D01*
X143013Y61669D02*
Y70331D01*
Y61669D02*
X144194D01*
Y57693D02*
Y61669D01*
Y57693D02*
X156006D01*
Y61669D01*
X157187D01*
X146610Y113564D02*
X159996D01*
X146610Y105690D02*
X159996D01*
X146610D02*
Y113564D01*
X159996Y105690D02*
Y113564D01*
X223851Y214876D02*
Y258576D01*
X258497D01*
Y214876D02*
Y258576D01*
X223851Y214876D02*
X258497D01*
X183997Y116549D02*
X208603D01*
Y147651D01*
X183997D02*
X208603D01*
X183997Y116549D02*
Y147651D01*
X181576Y177848D02*
X183741D01*
X181576D02*
Y195958D01*
X183741D01*
Y205801D01*
Y168399D02*
Y177848D01*
Y168399D02*
X242796D01*
Y205801D01*
X209528D02*
X242796D01*
X209528D02*
Y211116D01*
X189450D02*
X209528D01*
X189450Y205801D02*
Y211116D01*
X183741Y205801D02*
X189450D01*
X210028Y113399D02*
X242981D01*
Y150801D01*
X210028D02*
X242981D01*
X210028Y113399D02*
Y150801D01*
X151349Y192607D02*
Y205993D01*
Y192607D02*
X167964D01*
Y205993D01*
X151349D02*
X167964D01*
X114148Y192351D02*
Y206249D01*
X144935Y192351D02*
Y206249D01*
X114148D02*
X144935D01*
X114148Y192351D02*
X144935D01*
X78694Y189976D02*
X107906D01*
X78694Y212024D02*
X107906D01*
Y189976D02*
Y212024D01*
X78694Y189976D02*
Y212024D01*
D90*
X109406Y70695D02*
Y86624D01*
X126594Y70695D02*
Y86624D01*
X109406Y70695D02*
X126594D01*
X109406Y86624D02*
X126594D01*
X145435Y77609D02*
X161365D01*
X145435Y94798D02*
X161365D01*
Y77609D02*
Y94798D01*
X145435Y77609D02*
Y94798D01*
M02*
