G04*
G04 #@! TF.GenerationSoftware,Altium Limited,Altium Designer,20.0.2 (26)*
G04*
G04 Layer_Color=32896*
%FSLAX25Y25*%
%MOIN*%
G70*
G01*
G75*
%ADD10C,0.00787*%
%ADD14C,0.00500*%
%ADD15C,0.01000*%
D10*
X150271Y138600D02*
X149484D01*
X150271D01*
X163438Y95643D02*
X168162D01*
X150738D02*
X155462D01*
X163438Y149000D02*
X168162D01*
X150738D02*
X155462D01*
D14*
X169621Y113226D02*
Y128974D01*
X149779Y113226D02*
Y128974D01*
D15*
X82399Y192032D02*
X83065Y192699D01*
X84398D01*
X85065Y192032D01*
Y189366D01*
X84398Y188700D01*
X83065D01*
X82399Y189366D01*
Y190699D01*
X83732D01*
X81066Y188700D02*
Y192699D01*
X78400Y188700D01*
Y192699D01*
X77067D02*
Y188700D01*
X75068D01*
X74401Y189366D01*
Y192032D01*
X75068Y192699D01*
X77067D01*
Y203899D02*
Y199900D01*
X75068D01*
X74401Y200567D01*
Y201233D01*
X75068Y201899D01*
X77067D01*
X75068D01*
X74401Y202566D01*
Y203232D01*
X75068Y203899D01*
X77067D01*
Y209300D02*
Y211966D01*
X75734Y213299D01*
X74401Y211966D01*
Y209300D01*
Y211299D01*
X77067D01*
X221801Y200800D02*
X225800D01*
Y198801D01*
X225134Y198134D01*
X224467D01*
X223801Y198801D01*
Y200800D01*
Y198801D01*
X223134Y198134D01*
X222468D01*
X221801Y198801D01*
Y200800D01*
X225800Y196801D02*
X223134D01*
X221801Y195468D01*
X223134Y194135D01*
X225800D01*
X223801D01*
Y196801D01*
X221801Y192803D02*
Y190137D01*
Y191470D01*
X225800D01*
Y181700D02*
X221801D01*
Y179701D01*
X222468Y179034D01*
X223801D01*
X224467Y179701D01*
Y181700D01*
X222468Y175036D02*
X221801Y175702D01*
Y177035D01*
X222468Y177701D01*
X223134D01*
X223801Y177035D01*
Y175702D01*
X224467Y175036D01*
X225134D01*
X225800Y175702D01*
Y177035D01*
X225134Y177701D01*
X198401Y222700D02*
X202400D01*
Y220701D01*
X201733Y220034D01*
X201067D01*
X200401Y220701D01*
Y222700D01*
Y220701D01*
X199734Y220034D01*
X199068D01*
X198401Y220701D01*
Y222700D01*
Y218701D02*
Y216036D01*
X199068D01*
X201733Y218701D01*
X202400D01*
Y216036D01*
X200401Y214703D02*
Y212037D01*
X199068Y213370D02*
X201733D01*
X209201Y222500D02*
X213200D01*
Y220501D01*
X212534Y219834D01*
X211867D01*
X211201Y220501D01*
Y222500D01*
Y220501D01*
X210534Y219834D01*
X209868D01*
X209201Y220501D01*
Y222500D01*
Y218501D02*
Y215835D01*
X209868D01*
X212534Y218501D01*
X213200D01*
Y215835D01*
X211201Y214503D02*
Y211837D01*
X89700Y229199D02*
Y225200D01*
X87701D01*
X87034Y225866D01*
Y226533D01*
X87701Y227199D01*
X89700D01*
X87701D01*
X87034Y227866D01*
Y228532D01*
X87701Y229199D01*
X89700D01*
X85701Y225200D02*
Y227866D01*
X84368Y229199D01*
X83035Y227866D01*
Y225200D01*
Y227199D01*
X85701D01*
X81703Y229199D02*
X79037D01*
X80370D01*
Y225200D01*
X77704Y227199D02*
X75038D01*
X89500Y239299D02*
Y235300D01*
X87501D01*
X86834Y235966D01*
Y236633D01*
X87501Y237299D01*
X89500D01*
X87501D01*
X86834Y237966D01*
Y238632D01*
X87501Y239299D01*
X89500D01*
X85501Y235300D02*
Y237966D01*
X84168Y239299D01*
X82836Y237966D01*
Y235300D01*
Y237299D01*
X85501D01*
X81503Y239299D02*
X78837D01*
X80170D01*
Y235300D01*
X77504Y237299D02*
X74838D01*
X76171Y238632D02*
Y235966D01*
X78768Y163934D02*
X78101Y164601D01*
Y165934D01*
X78768Y166600D01*
X81434D01*
X82100Y165934D01*
Y164601D01*
X81434Y163934D01*
X80101D01*
Y165267D01*
X82100Y162601D02*
X78101D01*
X82100Y159935D01*
X78101D01*
Y158603D02*
X82100D01*
Y156603D01*
X81434Y155937D01*
X78768D01*
X78101Y156603D01*
Y158603D01*
X92220Y166600D02*
X88221D01*
Y164601D01*
X88888Y163934D01*
X90221D01*
X90887Y164601D01*
Y166600D01*
Y165267D02*
X92220Y163934D01*
X88221Y162601D02*
X92220Y159935D01*
X88221D02*
X92220Y162601D01*
X98341Y166600D02*
Y163934D01*
Y165267D01*
X102340D01*
X98341Y162601D02*
X102340Y159935D01*
X98341D02*
X102340Y162601D01*
X108461Y166600D02*
X112460D01*
Y164601D01*
X111794Y163934D01*
X111127D01*
X110461Y164601D01*
Y166600D01*
Y164601D01*
X109794Y163934D01*
X109128D01*
X108461Y164601D01*
Y166600D01*
Y160602D02*
Y161935D01*
X109128Y162601D01*
X111794D01*
X112460Y161935D01*
Y160602D01*
X111794Y159935D01*
X109128D01*
X108461Y160602D01*
Y156603D02*
Y157936D01*
X109128Y158603D01*
X111794D01*
X112460Y157936D01*
Y156603D01*
X111794Y155937D01*
X109128D01*
X108461Y156603D01*
Y154604D02*
Y151938D01*
Y153271D01*
X112460D01*
X118581Y163934D02*
Y166600D01*
X122580D01*
Y163934D01*
X120581Y166600D02*
Y165267D01*
X122580Y162601D02*
X118581D01*
X122580Y159935D01*
X118581D01*
X128701Y166600D02*
X131367D01*
X132700Y165267D01*
X131367Y163934D01*
X128701D01*
X129368Y159935D02*
X128701Y160602D01*
Y161935D01*
X129368Y162601D01*
X132034D01*
X132700Y161935D01*
Y160602D01*
X132034Y159935D01*
X129368Y155937D02*
X128701Y156603D01*
Y157936D01*
X129368Y158603D01*
X132034D01*
X132700Y157936D01*
Y156603D01*
X132034Y155937D01*
X156600Y83743D02*
Y87742D01*
X154601D01*
X153934Y87076D01*
Y85743D01*
X154601Y85076D01*
X156600D01*
X155267D02*
X153934Y83743D01*
X152601Y87076D02*
X151935Y87742D01*
X150602D01*
X149935Y87076D01*
Y86409D01*
X150602Y85743D01*
X149935Y85076D01*
Y84410D01*
X150602Y83743D01*
X151935D01*
X152601Y84410D01*
Y85076D01*
X151935Y85743D01*
X152601Y86409D01*
Y87076D01*
X151935Y85743D02*
X150602D01*
X169100Y83143D02*
Y87142D01*
X167101D01*
X166434Y86476D01*
Y85143D01*
X167101Y84476D01*
X169100D01*
X167767D02*
X166434Y83143D01*
X165101Y87142D02*
X162435D01*
Y86476D01*
X165101Y83810D01*
Y83143D01*
X168700Y159100D02*
Y163099D01*
X166701D01*
X166034Y162432D01*
Y161099D01*
X166701Y160433D01*
X168700D01*
X167367D02*
X166034Y159100D01*
X162036Y163099D02*
X164701D01*
Y161099D01*
X163368Y161766D01*
X162702D01*
X162036Y161099D01*
Y159766D01*
X162702Y159100D01*
X164035D01*
X164701Y159766D01*
X156000Y159100D02*
Y163099D01*
X154001D01*
X153334Y162432D01*
Y161099D01*
X154001Y160433D01*
X156000D01*
X154667D02*
X153334Y159100D01*
X150002D02*
Y163099D01*
X152001Y161099D01*
X149336D01*
X169600Y146399D02*
Y143067D01*
X168933Y142400D01*
X167601D01*
X166934Y143067D01*
Y146399D01*
X163602Y142400D02*
Y146399D01*
X165601Y144399D01*
X162935D01*
M02*
