G04*
G04 #@! TF.GenerationSoftware,Altium Limited,Altium Designer,20.0.2 (26)*
G04*
G04 Layer_Physical_Order=1*
G04 Layer_Color=255*
%FSLAX25Y25*%
%MOIN*%
G70*
G01*
G75*
%ADD46R,0.05512X0.04724*%
G04:AMPARAMS|DCode=47|XSize=23.62mil|YSize=53.15mil|CornerRadius=1.77mil|HoleSize=0mil|Usage=FLASHONLY|Rotation=180.000|XOffset=0mil|YOffset=0mil|HoleType=Round|Shape=RoundedRectangle|*
%AMROUNDEDRECTD47*
21,1,0.02362,0.04961,0,0,180.0*
21,1,0.02008,0.05315,0,0,180.0*
1,1,0.00354,-0.01004,0.02480*
1,1,0.00354,0.01004,0.02480*
1,1,0.00354,0.01004,-0.02480*
1,1,0.00354,-0.01004,-0.02480*
%
%ADD47ROUNDEDRECTD47*%
%ADD48R,0.04331X0.05709*%
%ADD49R,0.04724X0.05512*%
%ADD50R,0.03543X0.05906*%
%ADD51R,0.05906X0.03543*%
%ADD52R,0.03543X0.03543*%
%ADD53R,0.02362X0.04528*%
%ADD54R,0.05512X0.03937*%
%ADD55R,0.03937X0.05512*%
%ADD56R,0.04764X0.02323*%
G04:AMPARAMS|DCode=57|XSize=61.42mil|YSize=15.75mil|CornerRadius=1.97mil|HoleSize=0mil|Usage=FLASHONLY|Rotation=180.000|XOffset=0mil|YOffset=0mil|HoleType=Round|Shape=RoundedRectangle|*
%AMROUNDEDRECTD57*
21,1,0.06142,0.01181,0,0,180.0*
21,1,0.05748,0.01575,0,0,180.0*
1,1,0.00394,-0.02874,0.00591*
1,1,0.00394,0.02874,0.00591*
1,1,0.00394,0.02874,-0.00591*
1,1,0.00394,-0.02874,-0.00591*
%
%ADD57ROUNDEDRECTD57*%
G04:AMPARAMS|DCode=58|XSize=77.56mil|YSize=23.62mil|CornerRadius=2.95mil|HoleSize=0mil|Usage=FLASHONLY|Rotation=180.000|XOffset=0mil|YOffset=0mil|HoleType=Round|Shape=RoundedRectangle|*
%AMROUNDEDRECTD58*
21,1,0.07756,0.01772,0,0,180.0*
21,1,0.07165,0.02362,0,0,180.0*
1,1,0.00591,-0.03583,0.00886*
1,1,0.00591,0.03583,0.00886*
1,1,0.00591,0.03583,-0.00886*
1,1,0.00591,-0.03583,-0.00886*
%
%ADD58ROUNDEDRECTD58*%
%ADD59R,0.09500X0.13000*%
%ADD60C,0.02000*%
%ADD61C,0.01200*%
%ADD62C,0.02500*%
%ADD63R,0.05906X0.05906*%
%ADD64C,0.05906*%
%ADD65R,0.05906X0.05906*%
%ADD66R,0.05150X0.05150*%
%ADD67C,0.05150*%
%ADD68C,0.09449*%
%ADD69C,0.06201*%
%ADD70R,0.06201X0.06201*%
%ADD71O,0.17717X0.08858*%
%ADD72O,0.08858X0.17717*%
%ADD73O,0.09843X0.19685*%
%ADD74C,0.05898*%
%ADD75C,0.07677*%
%ADD76C,0.03543*%
%ADD77C,0.05000*%
G36*
X126900Y56700D02*
X121000D01*
X123950Y59650D01*
X126900Y56700D01*
D02*
G37*
G36*
X153840Y58837D02*
X150890Y55887D01*
X156790D01*
X153840Y58837D01*
D02*
G37*
G36*
X164783Y63257D02*
X167733Y60307D01*
Y66207D01*
X164783Y63257D01*
D02*
G37*
G36*
X134000Y67000D02*
X136950Y69950D01*
X131050D01*
X134000Y67000D01*
D02*
G37*
G36*
X158000Y76400D02*
D01*
D02*
G37*
G36*
X161200Y79150D02*
X158250Y76200D01*
X161200D01*
Y79150D01*
D02*
G37*
G36*
X106500Y114984D02*
X104116Y112600D01*
X85500Y112600D01*
X85500Y133100D01*
X106500Y133100D01*
X106500Y114984D01*
D02*
G37*
G36*
X137300Y216850D02*
D01*
D02*
G37*
%LPC*%
G36*
X104795Y130872D02*
X102524D01*
Y128600D01*
X104795D01*
Y130872D01*
D02*
G37*
G36*
X90500D02*
X88228D01*
Y128600D01*
X90500D01*
Y130872D01*
D02*
G37*
G36*
X101524D02*
X97012D01*
Y128100D01*
X96012D01*
Y130872D01*
X91500D01*
Y128100D01*
X91000D01*
Y127600D01*
X88228D01*
Y125328D01*
Y123088D01*
X91000D01*
Y122088D01*
X88228D01*
Y119817D01*
Y117576D01*
X91000D01*
Y117076D01*
X91500D01*
Y114305D01*
X96012D01*
Y117076D01*
X97012D01*
Y114305D01*
X101524D01*
Y117076D01*
X102024D01*
Y117576D01*
X104795D01*
Y119817D01*
Y122088D01*
X102024D01*
Y123088D01*
X104795D01*
Y125328D01*
Y127600D01*
X102024D01*
Y128100D01*
X101524D01*
Y130872D01*
D02*
G37*
G36*
X104795Y116576D02*
X102524D01*
Y114305D01*
X104795D01*
Y116576D01*
D02*
G37*
G36*
X90500D02*
X88228D01*
Y114305D01*
X90500D01*
Y116576D01*
D02*
G37*
%LPD*%
D46*
X162323Y70343D02*
D03*
Y63257D02*
D03*
X136468Y75057D02*
D03*
Y82143D02*
D03*
X100500Y75057D02*
D03*
Y82143D02*
D03*
X49000D02*
D03*
Y75057D02*
D03*
X64500D02*
D03*
Y82143D02*
D03*
X174500Y197557D02*
D03*
Y204643D02*
D03*
D47*
X153840Y70665D02*
D03*
X150100D02*
D03*
X146360D02*
D03*
Y61335D02*
D03*
X153840D02*
D03*
D48*
X149760Y109627D02*
D03*
X156846D02*
D03*
D49*
X149957Y119457D02*
D03*
X157043D02*
D03*
X189257Y219100D02*
D03*
X196343D02*
D03*
X157043Y99836D02*
D03*
X149957D02*
D03*
Y149243D02*
D03*
X157043D02*
D03*
X149957Y169100D02*
D03*
X157043D02*
D03*
X149957Y159171D02*
D03*
X157043D02*
D03*
X149957Y139314D02*
D03*
X157043D02*
D03*
X149857Y129386D02*
D03*
X156943D02*
D03*
X155557Y219100D02*
D03*
X162643D02*
D03*
X138257D02*
D03*
X145343D02*
D03*
X172657Y219000D02*
D03*
X179743D02*
D03*
X121157Y219100D02*
D03*
X128243D02*
D03*
D50*
X66118Y94045D02*
D03*
X71118D02*
D03*
X76118D02*
D03*
X81118D02*
D03*
X86118D02*
D03*
X91118D02*
D03*
X96118D02*
D03*
X101118D02*
D03*
X106118D02*
D03*
X111118D02*
D03*
X116118D02*
D03*
X121118D02*
D03*
X126118D02*
D03*
X131118D02*
D03*
Y162943D02*
D03*
X126118D02*
D03*
X121118D02*
D03*
X116118D02*
D03*
X111118D02*
D03*
X106118D02*
D03*
X101118D02*
D03*
X96118D02*
D03*
X91118D02*
D03*
X86118D02*
D03*
X81118D02*
D03*
X76118D02*
D03*
X71118D02*
D03*
X66118D02*
D03*
D51*
X136039Y150994D02*
D03*
Y145994D02*
D03*
Y140994D02*
D03*
Y135994D02*
D03*
Y130994D02*
D03*
Y125994D02*
D03*
Y120994D02*
D03*
Y115994D02*
D03*
Y110994D02*
D03*
Y105994D02*
D03*
D52*
X96512Y122588D02*
D03*
Y128100D02*
D03*
X102024D02*
D03*
Y122588D02*
D03*
Y117076D02*
D03*
X96512D02*
D03*
X91000D02*
D03*
Y122588D02*
D03*
Y128100D02*
D03*
D53*
X82000Y74040D02*
D03*
X78260Y82898D02*
D03*
X85740D02*
D03*
D54*
X113669Y78659D02*
D03*
X122331Y82399D02*
D03*
Y74919D02*
D03*
D55*
X153400Y81873D02*
D03*
X149660Y90534D02*
D03*
X157140D02*
D03*
D56*
X154716Y203040D02*
D03*
Y199300D02*
D03*
Y195560D02*
D03*
X164597D02*
D03*
Y203040D02*
D03*
Y199300D02*
D03*
D57*
X118203Y195461D02*
D03*
Y198021D02*
D03*
Y200580D02*
D03*
Y203139D02*
D03*
X140880D02*
D03*
Y200580D02*
D03*
Y198021D02*
D03*
Y195461D02*
D03*
D58*
X103044Y193500D02*
D03*
Y198500D02*
D03*
Y203500D02*
D03*
Y208500D02*
D03*
X83556D02*
D03*
Y203500D02*
D03*
Y198500D02*
D03*
Y193500D02*
D03*
D59*
X93300Y201000D02*
D03*
D60*
X167300Y60400D02*
Y65773D01*
X169872Y68345D01*
X162996Y138311D02*
X169872Y131436D01*
Y68345D02*
Y131436D01*
X163100Y56200D02*
X167300Y60400D01*
X161500Y82400D02*
X166100Y87000D01*
Y121200D01*
X138700Y90400D02*
X149660D01*
X122331Y82340D02*
X122461Y82470D01*
X77700Y173600D02*
X80500D01*
X94000Y124850D02*
X96625Y122225D01*
X143500Y119500D02*
X144074Y120074D01*
X163693Y139007D02*
X164000Y138700D01*
X142921Y149221D02*
X149935D01*
X136223Y199300D02*
X140880D01*
X95457Y224043D02*
X145343D01*
X65000Y236900D02*
X68000D01*
X62000Y233900D02*
X65000Y236900D01*
X62000Y221800D02*
Y233900D01*
Y221800D02*
X64500Y219300D01*
X75900D01*
X83556Y211644D01*
X68000Y226900D02*
X78000D01*
X68000Y236900D02*
X82600D01*
X95457Y224043D01*
X221000Y217800D02*
X231900Y206900D01*
Y201000D02*
Y206900D01*
X221000Y217800D02*
Y232926D01*
X215300Y171600D02*
X215400Y171500D01*
X191600Y171600D02*
X215300D01*
X217200Y236726D02*
X221000Y232926D01*
X142943Y139357D02*
X149914D01*
X225600Y142158D02*
Y204900D01*
Y142158D02*
X226800Y140958D01*
X198367Y145167D02*
X220400Y167200D01*
Y210500D01*
X149699Y129543D02*
X149857Y129386D01*
X144057Y129543D02*
X149699D01*
X143900Y129700D02*
X144057Y129543D01*
X158351Y139007D02*
X163693D01*
X156993Y124421D02*
Y129336D01*
Y119507D02*
Y124421D01*
X144074Y120074D02*
Y123250D01*
X145246Y124421D01*
X156993D01*
X142600Y139700D02*
X142943Y139357D01*
X157749Y139609D02*
X158351Y139007D01*
X45000Y56200D02*
X124000D01*
X74000Y64100D02*
Y66000D01*
X70500Y69500D02*
X74000Y66000D01*
X50300Y69500D02*
X70500D01*
X49000Y70800D02*
X50300Y69500D01*
X49000Y70800D02*
Y75057D01*
X103044Y193500D02*
X103094Y193550D01*
X109350D01*
X109400Y193600D01*
X78000Y226900D02*
X89326Y215574D01*
X93226D01*
X93800Y215000D01*
X179026Y207726D02*
X179600Y208300D01*
X177976Y207726D02*
X179026D01*
X174894Y204643D02*
X177976Y207726D01*
X174500Y204643D02*
X174894D01*
X172607Y219050D02*
X172657Y219000D01*
X162693Y219050D02*
X172607D01*
X162643Y219100D02*
X162693Y219050D01*
X172300Y218643D02*
X172657Y219000D01*
X172300Y214100D02*
Y218643D01*
X164759Y199461D02*
X167928D01*
X169100Y200633D01*
Y210900D01*
X172300Y214100D01*
X164597Y199300D02*
X164759Y199461D01*
X137600Y209800D02*
X155700D01*
X155557Y209943D02*
Y219100D01*
X134000Y201523D02*
Y206200D01*
X133000Y219100D02*
X138257D01*
X128243D02*
X133000D01*
Y214100D02*
X133300Y213800D01*
X133000Y214100D02*
Y219100D01*
X83556Y208500D02*
Y211644D01*
X78000Y198400D02*
X78050Y198450D01*
X83506D01*
X83556Y198500D01*
X163426Y209800D02*
X164597Y208628D01*
Y203040D02*
Y208628D01*
X155700Y209800D02*
X163426D01*
X134000Y201523D02*
X136223Y199300D01*
X174500Y197557D02*
X179445D01*
X180888Y199000D01*
X181700D01*
X121100Y213600D02*
Y219043D01*
X110600Y203100D02*
X121100Y213600D01*
X110600Y199800D02*
Y203100D01*
X109200Y198400D02*
X110600Y199800D01*
X154554Y199139D02*
X154716Y199300D01*
X149850Y199139D02*
X154554D01*
X149212Y198500D02*
X149850Y199139D01*
X148400Y198500D02*
X149212D01*
X179800Y224100D02*
X183800D01*
X175800D02*
X179800D01*
X179743Y219000D02*
Y224043D01*
X179800Y224100D01*
X121100Y219043D02*
X121157Y219100D01*
X103344Y198400D02*
X109200D01*
X145400Y224100D02*
X175800D01*
X145343Y219100D02*
Y224043D01*
X145400Y224100D01*
X111700Y151400D02*
X116118Y155818D01*
Y162943D01*
X111500Y117100D02*
Y142500D01*
X103400Y109000D02*
X111500Y117100D01*
X91000Y109000D02*
X103400D01*
X133800Y70100D02*
X145794D01*
X111000D02*
X133800D01*
X134000Y64100D02*
Y69900D01*
X133800Y70100D02*
X134000Y69900D01*
X146300Y70605D02*
X146360Y70665D01*
X145794Y70100D02*
X146300Y70605D01*
X136039Y93061D02*
X138700Y90400D01*
X143900Y82000D02*
X153400D01*
X161200Y82100D02*
X161500Y82400D01*
X161200Y76200D02*
Y82100D01*
X150281Y70846D02*
Y75028D01*
X151453Y76200D01*
X161200D01*
X162323Y75077D01*
X150100Y70665D02*
X150281Y70846D01*
X162323Y70343D02*
Y75077D01*
X153840Y67340D02*
Y70665D01*
X152508Y66008D02*
X153840Y67340D01*
X147715Y66008D02*
X152508D01*
X146300Y67423D02*
Y70605D01*
Y67423D02*
X147715Y66008D01*
X162323Y63257D02*
X167243D01*
X153700Y56200D02*
X163100D01*
X124000D02*
X153700D01*
X153840Y56340D02*
Y61335D01*
X153700Y56200D02*
X153840Y56340D01*
X124000Y56200D02*
Y64100D01*
X149914Y139357D02*
X149957Y139314D01*
X149935Y149221D02*
X149957Y149243D01*
X142900Y149200D02*
X142921Y149221D01*
X149892Y159236D02*
X149957Y159171D01*
X142964Y159236D02*
X149892D01*
X142900Y159300D02*
X142964Y159236D01*
X127400Y104400D02*
X127406D01*
X129053Y106047D01*
X135986D01*
X149573Y109813D02*
X149760Y109627D01*
X143986Y109813D02*
X149573D01*
X156993Y119507D02*
X157043Y119457D01*
X156943Y129386D02*
X156993Y129336D01*
X156943Y129386D02*
X156993Y129436D01*
Y139264D01*
X157043Y139314D01*
X136039Y93061D02*
Y105994D01*
X143500Y99600D02*
X149957D01*
X116250Y125850D02*
X116309Y125791D01*
Y94236D02*
Y125791D01*
X91000Y106718D02*
Y109000D01*
Y106718D02*
X91118Y106600D01*
X106118Y94045D02*
Y103318D01*
X111100Y108300D01*
X111059Y94104D02*
Y100659D01*
X111100Y100700D01*
X87500Y88100D02*
X134328D01*
X91118Y94045D02*
Y106600D01*
X110500Y171600D02*
Y173600D01*
X143100Y169100D02*
X149957D01*
X136943Y162943D02*
X143100Y169100D01*
X131118Y162943D02*
X136943D01*
X157043Y159171D02*
Y169100D01*
Y149243D02*
Y159171D01*
Y141300D02*
Y149243D01*
Y141300D02*
X157749Y139609D01*
X75000Y176300D02*
X77700Y173600D01*
X68200Y176300D02*
X75000D01*
X66118Y174218D02*
X68200Y176300D01*
X81059Y163002D02*
Y167041D01*
X79953Y168147D02*
X81059Y167041D01*
X74453Y168147D02*
X79953D01*
X71500Y171100D02*
X74453Y168147D01*
X113953D02*
X128953D01*
X110500Y171600D02*
X113953Y168147D01*
X128953D02*
X131118Y165982D01*
X211300Y187100D02*
Y216000D01*
X208200Y219100D02*
X211300Y216000D01*
X196343Y219100D02*
X208200D01*
X198367Y137021D02*
Y145167D01*
X194300Y241100D02*
X226800D01*
X182800Y229600D02*
X194300Y241100D01*
X179800Y229600D02*
X182800D01*
X196426Y236726D02*
X217200D01*
X183800Y224100D02*
X196426Y236726D01*
X66118Y162943D02*
Y174218D01*
X155900Y174700D02*
X157000Y173600D01*
X131600Y174700D02*
X155900D01*
X130500Y173600D02*
X131600Y174700D01*
X131118Y162943D02*
Y165982D01*
X211300Y184313D02*
Y187100D01*
X175800Y224100D02*
X175843Y224057D01*
X157000Y169143D02*
X157043Y169100D01*
X157000Y169143D02*
Y173600D01*
X99500Y125576D02*
X102024Y128100D01*
X99500Y125100D02*
Y125576D01*
Y119600D02*
X102024Y117076D01*
X94000Y119600D02*
X96625Y122225D01*
X94000Y124850D02*
Y125100D01*
X91000Y128100D02*
X94000Y125100D01*
X66118Y94045D02*
Y99118D01*
X66000Y99236D02*
X66118Y99118D01*
X66000Y99236D02*
Y130054D01*
X66118Y130172D01*
Y162943D01*
X135986Y106047D02*
X136039Y105994D01*
X122461Y82470D02*
X128370D01*
X128500Y82600D01*
X70500Y101100D02*
X70809Y100791D01*
Y94354D02*
Y100791D01*
Y94354D02*
X71118Y94045D01*
X100500Y75057D02*
X106043D01*
X111000Y70100D01*
X124000Y64100D02*
X124747Y63353D01*
X179300Y229600D02*
X179800D01*
X121309Y94236D02*
Y113409D01*
X230300Y244600D02*
X233300D01*
X226800Y241100D02*
X230300Y244600D01*
X134328Y88100D02*
X136500Y85928D01*
X86118Y89482D02*
X87500Y88100D01*
X86118Y89482D02*
Y94045D01*
X136500Y82143D02*
Y85928D01*
X92957Y82143D02*
X100500D01*
X64500Y75057D02*
X69457D01*
X71500Y77100D01*
Y80958D01*
X73071Y82529D01*
X78260D01*
X82000Y73671D02*
X82071Y73600D01*
X92000D01*
X93457Y75057D02*
X100500D01*
X92000Y73600D02*
X93457Y75057D01*
X85740Y82529D02*
X92571D01*
X92957Y82143D01*
X110500Y78600D02*
X113669D01*
X106957Y82143D02*
X110500Y78600D01*
X100500Y82143D02*
X106957D01*
X136402Y74958D02*
X136500Y75057D01*
X122429Y74958D02*
X136402D01*
X122331Y74860D02*
X122429Y74958D01*
X81059Y163002D02*
X81118Y162943D01*
X86118Y169218D02*
X90500Y173600D01*
X86118Y162943D02*
Y169218D01*
X157142Y88529D02*
X157240Y88431D01*
X157142Y88529D02*
Y99502D01*
X157043Y99600D02*
X157142Y99502D01*
X149957Y99600D02*
X149957Y99600D01*
X111059Y94104D02*
X111118Y94045D01*
X121309Y113409D02*
X121500Y113600D01*
X121118Y94045D02*
X121309Y94236D01*
X116118Y94045D02*
X116309Y94236D01*
X76000Y152100D02*
X76059Y152041D01*
Y94104D02*
Y152041D01*
Y94104D02*
X76118Y94045D01*
D61*
X162000Y106300D02*
Y123600D01*
X160500Y104800D02*
X162000Y106300D01*
X145300Y104800D02*
X160500D01*
X139200Y110900D02*
X145300Y104800D01*
X136133Y110900D02*
X139200D01*
X136039Y110994D02*
X136133Y110900D01*
X113532Y194127D02*
Y195366D01*
Y194127D02*
X113600Y194058D01*
X113532Y195366D02*
Y201914D01*
X113600Y194058D02*
X114584Y193074D01*
X154716Y193216D02*
Y195560D01*
X153300Y191800D02*
X154716Y193216D01*
X114584Y202967D02*
X120090D01*
X155557Y209943D02*
X155700Y209800D01*
X118203Y198021D02*
Y200580D01*
X140880Y198021D02*
Y199300D01*
Y200351D02*
Y200580D01*
X110873Y207573D02*
Y210573D01*
X106800Y203500D02*
X110873Y207573D01*
X103044Y203500D02*
X106800D01*
X110873Y210573D02*
X111600Y211300D01*
X113532Y201914D02*
X114584Y202967D01*
Y193074D02*
X114726D01*
X116000Y191800D01*
X154666Y203089D02*
X154716Y203040D01*
X142988Y203089D02*
X154666D01*
X116000Y191800D02*
X153300D01*
X120261Y195461D02*
X142939D01*
X120261Y200580D02*
X120301Y200540D01*
X128560D01*
X128600Y200500D01*
X120090Y202967D02*
X120261Y203139D01*
X156846Y109627D02*
Y111054D01*
X149957Y117943D02*
X156846Y111054D01*
X149957Y117943D02*
Y119457D01*
X142939Y203139D02*
X142988Y203089D01*
D62*
X103100Y213300D02*
X103122Y213278D01*
Y208569D02*
Y213278D01*
X187700Y187122D02*
Y219100D01*
X187678Y187100D02*
X189083Y185695D01*
Y174117D02*
X191600Y171600D01*
X189083Y174117D02*
Y185695D01*
X67500Y88100D02*
X79536D01*
X64500Y85100D02*
X67500Y88100D01*
X83600Y190164D02*
Y193456D01*
X85065Y188700D02*
X92400D01*
X83600Y190164D02*
X85065Y188700D01*
X83556Y193500D02*
X83600Y193456D01*
X103044Y208500D02*
X103053D01*
X103122Y208569D01*
X187678Y187100D02*
X187700Y187122D01*
Y219100D02*
X189257D01*
X64500Y82143D02*
Y85100D01*
X81000Y89565D02*
Y93927D01*
X79536Y88100D02*
X81000Y89565D01*
Y93927D02*
X81118Y94045D01*
X49000Y82143D02*
X64500D01*
D63*
X68000Y211200D02*
D03*
Y236900D02*
D03*
D64*
Y201200D02*
D03*
Y191200D02*
D03*
X114000Y64100D02*
D03*
X104000D02*
D03*
X94000D02*
D03*
X84000D02*
D03*
X74000D02*
D03*
X64000D02*
D03*
X54000D02*
D03*
X124000D02*
D03*
X159800Y229600D02*
D03*
X149800D02*
D03*
X139800D02*
D03*
X129800D02*
D03*
X119800D02*
D03*
X109800D02*
D03*
X99800D02*
D03*
X169800D02*
D03*
X210300Y229100D02*
D03*
X90100Y173100D02*
D03*
X100100D02*
D03*
X110100D02*
D03*
X120100D02*
D03*
X130100D02*
D03*
X68000Y226900D02*
D03*
D65*
X134000Y64100D02*
D03*
X179800Y229600D02*
D03*
X200300Y229100D02*
D03*
X80100Y173100D02*
D03*
D66*
X233300Y228852D02*
D03*
D67*
Y236726D02*
D03*
Y244600D02*
D03*
D68*
Y252868D02*
D03*
Y220584D02*
D03*
D69*
X198367Y127179D02*
D03*
D70*
Y137021D02*
D03*
D71*
X199489Y205604D02*
D03*
D72*
X211300Y187100D02*
D03*
D73*
X187678D02*
D03*
D74*
X226800Y123242D02*
D03*
Y140958D02*
D03*
D75*
X216997Y145899D02*
D03*
Y118301D02*
D03*
D76*
X162000Y123600D02*
D03*
X166100Y121200D02*
D03*
X144700Y110200D02*
D03*
D77*
X143500Y119500D02*
D03*
X164000Y138700D02*
D03*
X103100Y213300D02*
D03*
X231900Y201000D02*
D03*
X215400Y171500D02*
D03*
X225600Y204900D02*
D03*
X220400Y210500D02*
D03*
X143900Y129700D02*
D03*
Y139700D02*
D03*
Y149200D02*
D03*
Y82000D02*
D03*
X45000Y56200D02*
D03*
X109400Y193600D02*
D03*
X136100Y208100D02*
D03*
X93800Y215000D02*
D03*
X179600Y208300D02*
D03*
X133300Y213800D02*
D03*
X92400Y188700D02*
D03*
X78000Y198400D02*
D03*
X181700Y199000D02*
D03*
X111600Y211300D02*
D03*
X148400Y198500D02*
D03*
X128600Y200500D02*
D03*
X111700Y151400D02*
D03*
X111500Y142500D02*
D03*
X161500Y82400D02*
D03*
X127400Y104400D02*
D03*
X143900Y99600D02*
D03*
X116250Y125850D02*
D03*
X91000Y109000D02*
D03*
X111100Y108300D02*
D03*
Y100700D02*
D03*
X143900Y159300D02*
D03*
X71500Y171100D02*
D03*
X99500Y125100D02*
D03*
Y119600D02*
D03*
X94000D02*
D03*
Y125100D02*
D03*
X128500Y82600D02*
D03*
X70500Y101100D02*
D03*
X121500Y113600D02*
D03*
X76000Y152100D02*
D03*
M02*
