G04*
G04 #@! TF.GenerationSoftware,Altium Limited,Altium Designer,20.0.2 (26)*
G04*
G04 Layer_Physical_Order=2*
G04 Layer_Color=16711680*
%FSLAX25Y25*%
%MOIN*%
G70*
G01*
G75*
%ADD15C,0.01000*%
%ADD59C,0.02000*%
%ADD61C,0.02500*%
%ADD62C,0.05906*%
%ADD63R,0.05906X0.05906*%
%ADD64R,0.05150X0.05150*%
%ADD65C,0.05150*%
%ADD66C,0.09449*%
%ADD67C,0.06201*%
%ADD68R,0.06201X0.06201*%
%ADD69O,0.17717X0.08858*%
%ADD70O,0.08858X0.17717*%
%ADD71O,0.09843X0.19685*%
%ADD72C,0.05898*%
%ADD73C,0.07677*%
%ADD74R,0.05906X0.05906*%
%ADD75C,0.05000*%
G36*
X115277Y206139D02*
X115230Y205887D01*
X115146Y205639D01*
X94800D01*
X94020Y205484D01*
X93358Y205042D01*
X91858Y203542D01*
X91416Y202880D01*
X91261Y202100D01*
Y199447D01*
X90804Y199096D01*
X90243Y198365D01*
X90094Y198006D01*
X89594Y198106D01*
Y205848D01*
X90065Y206043D01*
X90796Y206604D01*
X90951Y206806D01*
X114765D01*
X115277Y206139D01*
D02*
G37*
G36*
X181728Y186050D02*
X131089D01*
X130673Y186672D01*
X129951Y187154D01*
X129190Y187306D01*
X129239Y187806D01*
X181728D01*
Y186050D01*
D02*
G37*
G36*
X241800Y254100D02*
Y115600D01*
X235300Y109100D01*
X183800D01*
X181300Y111600D01*
Y114866D01*
X182051Y115015D01*
X182773Y115498D01*
X183255Y116219D01*
X183424Y117070D01*
X183255Y117921D01*
X182773Y118643D01*
Y119041D01*
X183255Y119762D01*
X183424Y120613D01*
X183255Y121464D01*
X182773Y122186D01*
Y122584D01*
X183255Y123306D01*
X183424Y124157D01*
X183255Y125008D01*
X182773Y125729D01*
Y126128D01*
X183255Y126849D01*
X183424Y127700D01*
X183255Y128551D01*
X182773Y129272D01*
Y129671D01*
X183255Y130392D01*
X183424Y131243D01*
X183255Y132094D01*
X182773Y132816D01*
Y133214D01*
X183255Y133936D01*
X183424Y134787D01*
X183255Y135638D01*
X182773Y136359D01*
X182246Y136711D01*
Y178669D01*
X182703Y178856D01*
X182747Y178854D01*
X183471Y177971D01*
X184372Y177232D01*
X185401Y176682D01*
X186517Y176343D01*
X187678Y176229D01*
X188839Y176343D01*
X189955Y176682D01*
X190983Y177232D01*
X191885Y177971D01*
X192625Y178873D01*
X193175Y179902D01*
X193514Y181018D01*
X193628Y182179D01*
Y192021D01*
X193514Y193182D01*
X193175Y194298D01*
X192625Y195327D01*
X191885Y196229D01*
X190983Y196968D01*
X189955Y197518D01*
X188839Y197857D01*
X187678Y197971D01*
X186517Y197857D01*
X185401Y197518D01*
X184372Y196968D01*
X183471Y196229D01*
X182731Y195327D01*
X182181Y194298D01*
X181842Y193182D01*
X181765Y192394D01*
X94117D01*
X93883Y192679D01*
X94064Y193170D01*
X94214Y193190D01*
X95065Y193543D01*
X95796Y194104D01*
X96357Y194835D01*
X96710Y195686D01*
X96830Y196600D01*
X96710Y197514D01*
X96357Y198365D01*
X95796Y199096D01*
X95339Y199447D01*
Y201255D01*
X95645Y201561D01*
X146800D01*
X147580Y201716D01*
X148242Y202158D01*
X149914Y203830D01*
X150356Y204491D01*
X150511Y205272D01*
Y210928D01*
X150356Y211709D01*
X149914Y212370D01*
X133659Y228625D01*
X133787Y229600D01*
X133651Y230632D01*
X133253Y231593D01*
X132619Y232419D01*
X131793Y233053D01*
X130832Y233451D01*
X129800Y233587D01*
X128768Y233451D01*
X127807Y233053D01*
X126981Y232419D01*
X126347Y231593D01*
X125949Y230632D01*
X125813Y229600D01*
X125949Y228568D01*
X126347Y227607D01*
X126981Y226781D01*
X127807Y226147D01*
X128768Y225749D01*
X129800Y225613D01*
X130775Y225742D01*
X137970Y218546D01*
X137736Y218073D01*
X137300Y218130D01*
X136386Y218010D01*
X135535Y217657D01*
X134804Y217096D01*
X134453Y216639D01*
X130145D01*
X124742Y222042D01*
X124080Y222484D01*
X123300Y222639D01*
X98645D01*
X87242Y234042D01*
X86580Y234484D01*
X86253Y234549D01*
Y236553D01*
X78347D01*
Y228647D01*
X86253D01*
Y228647D01*
X86689Y228828D01*
X96358Y219158D01*
X97020Y218716D01*
X97800Y218561D01*
X122455D01*
X127858Y213158D01*
X128520Y212716D01*
X129300Y212561D01*
X134453D01*
X134804Y212104D01*
X135535Y211543D01*
X136386Y211190D01*
X137300Y211070D01*
X138214Y211190D01*
X139065Y211543D01*
X139796Y212104D01*
X140357Y212835D01*
X140710Y213686D01*
X140830Y214600D01*
X140773Y215036D01*
X141246Y215270D01*
X146432Y210084D01*
Y206116D01*
X145955Y205639D01*
X145389D01*
X145168Y206088D01*
X145357Y206335D01*
X145710Y207186D01*
X145830Y208100D01*
X145710Y209014D01*
X145357Y209865D01*
X144796Y210596D01*
X144065Y211157D01*
X143214Y211510D01*
X142300Y211630D01*
X141386Y211510D01*
X140535Y211157D01*
X139804Y210596D01*
X139453Y210139D01*
X127645D01*
X122742Y215042D01*
X122080Y215484D01*
X121300Y215639D01*
X85451D01*
X85357Y215865D01*
X84796Y216596D01*
X84065Y217157D01*
X83214Y217510D01*
X82300Y217630D01*
X81386Y217510D01*
X80535Y217157D01*
X79804Y216596D01*
X79243Y215865D01*
X78890Y215014D01*
X78770Y214100D01*
X78890Y213186D01*
X79243Y212335D01*
X79804Y211604D01*
X80535Y211043D01*
X81386Y210690D01*
X82300Y210570D01*
X83214Y210690D01*
X84065Y211043D01*
X84740Y211561D01*
X85211D01*
X85432Y211112D01*
X85243Y210865D01*
X84890Y210014D01*
X84770Y209100D01*
X84890Y208186D01*
X85006Y207907D01*
Y195882D01*
X85181Y195005D01*
X85678Y194260D01*
X91460Y188478D01*
X92205Y187980D01*
X93082Y187806D01*
X111244D01*
X111293Y187306D01*
X110532Y187154D01*
X109811Y186672D01*
X109329Y185951D01*
X109160Y185100D01*
X74800D01*
Y244600D01*
X223300D01*
Y260100D01*
X235800D01*
X241800Y254100D01*
D02*
G37*
G36*
X172971Y136388D02*
X172927Y136359D01*
X172445Y135638D01*
X172276Y134787D01*
X172445Y133936D01*
X172927Y133214D01*
X172873Y132734D01*
X172445Y132094D01*
X172276Y131243D01*
X172445Y130392D01*
X172873Y129753D01*
X172927Y129272D01*
X172445Y128551D01*
X172276Y127700D01*
X172445Y126849D01*
X172873Y126209D01*
X172905Y125928D01*
X172873Y125647D01*
X172445Y125008D01*
X172276Y124157D01*
X172445Y123306D01*
X172873Y122666D01*
X172927Y122186D01*
X172445Y121464D01*
X172276Y120613D01*
X172445Y119762D01*
X172927Y119041D01*
Y118643D01*
X172445Y117921D01*
X172276Y117070D01*
X172445Y116219D01*
X172927Y115498D01*
X172971Y115469D01*
X172971Y53129D01*
X66985Y53129D01*
X66953Y53629D01*
X67414Y53690D01*
X68265Y54043D01*
X68996Y54604D01*
X69557Y55335D01*
X69910Y56186D01*
X70030Y57100D01*
X69910Y58014D01*
X69557Y58865D01*
X68996Y59596D01*
X68539Y59947D01*
Y74255D01*
X71942Y77658D01*
X72384Y78320D01*
X72539Y79100D01*
Y98253D01*
X72996Y98604D01*
X73557Y99335D01*
X73910Y100186D01*
X74030Y101100D01*
X73910Y102014D01*
X73557Y102865D01*
X72996Y103596D01*
X72265Y104157D01*
X71414Y104510D01*
X70500Y104630D01*
X69586Y104510D01*
X68735Y104157D01*
X68004Y103596D01*
X67443Y102865D01*
X67090Y102014D01*
X66970Y101100D01*
X67090Y100186D01*
X67443Y99335D01*
X68004Y98604D01*
X68461Y98253D01*
Y79945D01*
X65250Y76734D01*
X64750Y76941D01*
Y177071D01*
X75655D01*
X76147Y177053D01*
Y173600D01*
X80100D01*
Y172600D01*
X76147D01*
Y170139D01*
X75345D01*
X74955Y170529D01*
X75030Y171100D01*
X74910Y172014D01*
X74557Y172865D01*
X73996Y173596D01*
X73265Y174157D01*
X72414Y174510D01*
X71500Y174630D01*
X70586Y174510D01*
X69735Y174157D01*
X69004Y173596D01*
X68443Y172865D01*
X68090Y172014D01*
X67970Y171100D01*
X68090Y170186D01*
X68443Y169335D01*
X69004Y168604D01*
X69735Y168043D01*
X70586Y167690D01*
X71500Y167570D01*
X72071Y167645D01*
X73058Y166658D01*
X73720Y166216D01*
X74500Y166061D01*
X97100D01*
X97880Y166216D01*
X98542Y166658D01*
X101134Y169250D01*
X102093Y169647D01*
X102919Y170281D01*
X103553Y171107D01*
X103951Y172068D01*
X104087Y173100D01*
X103951Y174132D01*
X103553Y175093D01*
X102919Y175919D01*
X102093Y176553D01*
X102050Y176571D01*
X102150Y177071D01*
X108050D01*
X108150Y176571D01*
X108107Y176553D01*
X107281Y175919D01*
X106647Y175093D01*
X106249Y174132D01*
X106113Y173100D01*
X106249Y172068D01*
X106647Y171107D01*
X107281Y170281D01*
X108107Y169647D01*
X109068Y169249D01*
X110100Y169113D01*
X111132Y169249D01*
X112093Y169647D01*
X112919Y170281D01*
X113553Y171107D01*
X113951Y172068D01*
X114087Y173100D01*
X113951Y174132D01*
X113553Y175093D01*
X112919Y175919D01*
X112583Y176177D01*
X112603Y176792D01*
X112956Y177027D01*
X113354D01*
X114076Y176546D01*
X114927Y176376D01*
X115778Y176546D01*
X116499Y177027D01*
X116898D01*
X117436Y176668D01*
X117511Y176096D01*
X117281Y175919D01*
X116647Y175093D01*
X116249Y174132D01*
X116113Y173100D01*
X116249Y172068D01*
X116647Y171107D01*
X117281Y170281D01*
X118107Y169647D01*
X118461Y169501D01*
Y159503D01*
X117897Y158939D01*
X80800D01*
X80800Y158939D01*
X80020Y158784D01*
X79358Y158342D01*
X79358Y158342D01*
X76571Y155555D01*
X76000Y155630D01*
X75086Y155510D01*
X74235Y155157D01*
X73504Y154596D01*
X72943Y153865D01*
X72590Y153014D01*
X72470Y152100D01*
X72590Y151186D01*
X72943Y150335D01*
X73504Y149604D01*
X74235Y149043D01*
X75086Y148690D01*
X76000Y148570D01*
X76914Y148690D01*
X77765Y149043D01*
X78496Y149604D01*
X79057Y150335D01*
X79410Y151186D01*
X79530Y152100D01*
X79455Y152671D01*
X81645Y154861D01*
X137900D01*
X138680Y155016D01*
X139342Y155458D01*
X140564Y156681D01*
X141135Y156243D01*
X141986Y155890D01*
X142900Y155770D01*
X143814Y155890D01*
X144665Y156243D01*
X145396Y156804D01*
X145957Y157535D01*
X146310Y158386D01*
X146430Y159300D01*
X146310Y160214D01*
X145957Y161065D01*
X145396Y161796D01*
X144665Y162357D01*
X143814Y162710D01*
X142900Y162830D01*
X141986Y162710D01*
X141135Y162357D01*
X140404Y161796D01*
X140009Y161281D01*
X139520Y161184D01*
X138858Y160742D01*
X137055Y158939D01*
X123103D01*
X122539Y159503D01*
Y169989D01*
X122919Y170281D01*
X123553Y171107D01*
X123951Y172068D01*
X124087Y173100D01*
X123951Y174132D01*
X123553Y175093D01*
X122919Y175919D01*
X122745Y176053D01*
X122846Y176506D01*
X122896Y176567D01*
X123586Y177027D01*
X123984D01*
X124706Y176546D01*
X125557Y176376D01*
X126408Y176546D01*
X127129Y177027D01*
X127527D01*
X127729Y176893D01*
X127749Y176278D01*
X127281Y175919D01*
X126647Y175093D01*
X126249Y174132D01*
X126113Y173100D01*
X126249Y172068D01*
X126647Y171107D01*
X127281Y170281D01*
X128107Y169647D01*
X129068Y169249D01*
X130100Y169113D01*
X131132Y169249D01*
X132093Y169647D01*
X132919Y170281D01*
X133553Y171107D01*
X133951Y172068D01*
X134087Y173100D01*
X133951Y174132D01*
X133553Y175093D01*
X132919Y175919D01*
X132093Y176553D01*
X132050Y176571D01*
X132150Y177071D01*
X172971D01*
Y136388D01*
D02*
G37*
G36*
X123450Y157150D02*
X117400Y157000D01*
X120500Y160100D01*
X123450Y157150D01*
D02*
G37*
%LPC*%
G36*
X233300Y258642D02*
X231806Y258445D01*
X230413Y257868D01*
X229217Y256950D01*
X228300Y255755D01*
X227723Y254362D01*
X227526Y252868D01*
X227723Y251373D01*
X228300Y249981D01*
X229217Y248785D01*
X230413Y247867D01*
X230778Y247716D01*
X230843Y247221D01*
X230750Y247150D01*
X230177Y246403D01*
X229817Y245533D01*
X229694Y244600D01*
X229817Y243667D01*
X230177Y242797D01*
X230750Y242050D01*
X231497Y241477D01*
X232367Y241117D01*
X233300Y240994D01*
X234233Y241117D01*
X235103Y241477D01*
X235850Y242050D01*
X236423Y242797D01*
X236783Y243667D01*
X236906Y244600D01*
X236783Y245533D01*
X236423Y246403D01*
X235850Y247150D01*
X235757Y247221D01*
X235822Y247716D01*
X236187Y247867D01*
X237383Y248785D01*
X238300Y249981D01*
X238877Y251373D01*
X239074Y252868D01*
X238877Y254362D01*
X238300Y255755D01*
X237383Y256950D01*
X236187Y257868D01*
X234794Y258445D01*
X233300Y258642D01*
D02*
G37*
G36*
X92600Y243264D02*
Y240300D01*
X95564D01*
X95510Y240714D01*
X95157Y241565D01*
X94596Y242296D01*
X93865Y242857D01*
X93014Y243210D01*
X92600Y243264D01*
D02*
G37*
G36*
X91600D02*
X91186Y243210D01*
X90335Y242857D01*
X89604Y242296D01*
X89043Y241565D01*
X88690Y240714D01*
X88636Y240300D01*
X91600D01*
Y243264D01*
D02*
G37*
G36*
X95564Y239300D02*
X92600D01*
Y236336D01*
X93014Y236390D01*
X93865Y236743D01*
X94596Y237304D01*
X95157Y238035D01*
X95510Y238886D01*
X95564Y239300D01*
D02*
G37*
G36*
X91600D02*
X88636D01*
X88690Y238886D01*
X89043Y238035D01*
X89604Y237304D01*
X90335Y236743D01*
X91186Y236390D01*
X91600Y236336D01*
Y239300D01*
D02*
G37*
G36*
X233300Y240332D02*
X232367Y240209D01*
X231497Y239849D01*
X230750Y239276D01*
X230177Y238529D01*
X229817Y237659D01*
X229694Y236726D01*
X229817Y235793D01*
X230177Y234923D01*
X230750Y234176D01*
X231497Y233603D01*
X232367Y233243D01*
X233300Y233120D01*
X234233Y233243D01*
X235103Y233603D01*
X235850Y234176D01*
X236423Y234923D01*
X236783Y235793D01*
X236906Y236726D01*
X236783Y237659D01*
X236423Y238529D01*
X235850Y239276D01*
X235103Y239849D01*
X234233Y240209D01*
X233300Y240332D01*
D02*
G37*
G36*
X120300Y233521D02*
Y230100D01*
X123721D01*
X123651Y230632D01*
X123253Y231593D01*
X122619Y232419D01*
X121793Y233053D01*
X120832Y233451D01*
X120300Y233521D01*
D02*
G37*
G36*
X119300D02*
X118768Y233451D01*
X117807Y233053D01*
X116981Y232419D01*
X116347Y231593D01*
X115949Y230632D01*
X115879Y230100D01*
X119300D01*
Y233521D01*
D02*
G37*
G36*
X123721Y229100D02*
X120300D01*
Y225679D01*
X120832Y225749D01*
X121793Y226147D01*
X122619Y226781D01*
X123253Y227607D01*
X123651Y228568D01*
X123721Y229100D01*
D02*
G37*
G36*
X119300D02*
X115879D01*
X115949Y228568D01*
X116347Y227607D01*
X116981Y226781D01*
X117807Y226147D01*
X118768Y225749D01*
X119300Y225679D01*
Y229100D01*
D02*
G37*
G36*
X183753Y233553D02*
X175847D01*
Y225647D01*
X183753D01*
Y233553D01*
D02*
G37*
G36*
X236875Y232427D02*
X229725D01*
Y225277D01*
X229725Y225277D01*
X229725D01*
X229492Y224878D01*
X229217Y224667D01*
X228300Y223471D01*
X227723Y222079D01*
X227526Y220584D01*
X227723Y219090D01*
X228300Y217697D01*
X229217Y216501D01*
X230413Y215584D01*
X231806Y215007D01*
X233300Y214810D01*
X234794Y215007D01*
X236187Y215584D01*
X237383Y216501D01*
X238300Y217697D01*
X238877Y219090D01*
X239074Y220584D01*
X238877Y222079D01*
X238300Y223471D01*
X237383Y224667D01*
X237109Y224877D01*
X236875Y225277D01*
X236875D01*
X236875Y225277D01*
Y232427D01*
D02*
G37*
G36*
X204300Y242139D02*
X166800D01*
X166020Y241984D01*
X165358Y241542D01*
X165358Y241542D01*
X158358Y234542D01*
X157916Y233880D01*
X157761Y233100D01*
Y233018D01*
X156981Y232419D01*
X156347Y231593D01*
X155949Y230632D01*
X155813Y229600D01*
X155949Y228568D01*
X156347Y227607D01*
X156981Y226781D01*
X157807Y226147D01*
X158768Y225749D01*
X159800Y225613D01*
X160832Y225749D01*
X161793Y226147D01*
X162619Y226781D01*
X163253Y227607D01*
X163651Y228568D01*
X163787Y229600D01*
X163651Y230632D01*
X163253Y231593D01*
X162619Y232419D01*
X162571Y232456D01*
X162539Y232955D01*
X167645Y238061D01*
X171235D01*
X171386Y237561D01*
X171358Y237542D01*
X168358Y234542D01*
X167916Y233880D01*
X167761Y233100D01*
Y233018D01*
X166981Y232419D01*
X166347Y231593D01*
X165949Y230632D01*
X165813Y229600D01*
X165949Y228568D01*
X166347Y227607D01*
X166981Y226781D01*
X167807Y226147D01*
X168768Y225749D01*
X169800Y225613D01*
X170832Y225749D01*
X171793Y226147D01*
X172619Y226781D01*
X173253Y227607D01*
X173651Y228568D01*
X173787Y229600D01*
X173651Y230632D01*
X173253Y231593D01*
X172619Y232419D01*
X172571Y232456D01*
X172539Y232955D01*
X173645Y234061D01*
X195955D01*
X196528Y233488D01*
X196347Y233053D01*
X196347D01*
Y225147D01*
X204253D01*
Y233053D01*
X202249D01*
X202184Y233380D01*
X201742Y234042D01*
X198242Y237542D01*
X198214Y237561D01*
X198365Y238061D01*
X203455D01*
X208261Y233255D01*
Y232518D01*
X207481Y231919D01*
X206847Y231093D01*
X206449Y230132D01*
X206313Y229100D01*
X206449Y228068D01*
X206847Y227107D01*
X207481Y226281D01*
X208307Y225647D01*
X209268Y225249D01*
X210300Y225113D01*
X211332Y225249D01*
X212293Y225647D01*
X213119Y226281D01*
X213753Y227107D01*
X214151Y228068D01*
X214287Y229100D01*
X214151Y230132D01*
X213753Y231093D01*
X213119Y231919D01*
X212339Y232518D01*
Y234100D01*
X212184Y234880D01*
X211742Y235542D01*
X205742Y241542D01*
X205080Y241984D01*
X204300Y242139D01*
D02*
G37*
G36*
X82300Y226587D02*
X81268Y226451D01*
X80307Y226053D01*
X79481Y225419D01*
X78847Y224593D01*
X78449Y223632D01*
X78313Y222600D01*
X78449Y221568D01*
X78847Y220607D01*
X79481Y219781D01*
X80307Y219147D01*
X81268Y218749D01*
X82300Y218613D01*
X83332Y218749D01*
X84293Y219147D01*
X85119Y219781D01*
X85753Y220607D01*
X86151Y221568D01*
X86287Y222600D01*
X86151Y223632D01*
X85753Y224593D01*
X85119Y225419D01*
X84293Y226053D01*
X83332Y226451D01*
X82300Y226587D01*
D02*
G37*
G36*
X149800Y233587D02*
X148768Y233451D01*
X147807Y233053D01*
X146981Y232419D01*
X146347Y231593D01*
X145949Y230632D01*
X145813Y229600D01*
X145949Y228568D01*
X146347Y227607D01*
X146981Y226781D01*
X147807Y226147D01*
X148768Y225749D01*
X149800Y225613D01*
X150775Y225742D01*
X156358Y220158D01*
X157020Y219716D01*
X157800Y219561D01*
X217149D01*
X217243Y219335D01*
X217804Y218604D01*
X218535Y218043D01*
X219386Y217690D01*
X220300Y217570D01*
X221214Y217690D01*
X222065Y218043D01*
X222796Y218604D01*
X223357Y219335D01*
X223710Y220186D01*
X223830Y221100D01*
X223710Y222014D01*
X223357Y222865D01*
X222796Y223596D01*
X222065Y224157D01*
X221214Y224510D01*
X220300Y224630D01*
X219386Y224510D01*
X218535Y224157D01*
X217860Y223639D01*
X158645D01*
X153658Y228625D01*
X153787Y229600D01*
X153651Y230632D01*
X153253Y231593D01*
X152619Y232419D01*
X151793Y233053D01*
X150832Y233451D01*
X149800Y233587D01*
D02*
G37*
G36*
X139800D02*
X138768Y233451D01*
X137807Y233053D01*
X136981Y232419D01*
X136347Y231593D01*
X135949Y230632D01*
X135813Y229600D01*
X135949Y228568D01*
X136347Y227607D01*
X136981Y226781D01*
X137807Y226147D01*
X138768Y225749D01*
X139800Y225613D01*
X139891Y225625D01*
X151358Y214158D01*
X152020Y213716D01*
X152800Y213561D01*
X152800Y213561D01*
X207455D01*
X211858Y209158D01*
X212520Y208716D01*
X213300Y208561D01*
X224453D01*
X224804Y208104D01*
X225535Y207543D01*
X226386Y207190D01*
X227300Y207070D01*
X228214Y207190D01*
X229065Y207543D01*
X229796Y208104D01*
X230357Y208835D01*
X230710Y209686D01*
X230830Y210600D01*
X230710Y211514D01*
X230357Y212365D01*
X229796Y213096D01*
X229065Y213657D01*
X228214Y214010D01*
X227300Y214130D01*
X226386Y214010D01*
X225535Y213657D01*
X224804Y213096D01*
X224453Y212639D01*
X214145D01*
X209742Y217042D01*
X209080Y217484D01*
X208300Y217639D01*
X153645D01*
X143377Y227907D01*
X143651Y228568D01*
X143787Y229600D01*
X143651Y230632D01*
X143253Y231593D01*
X142619Y232419D01*
X141793Y233053D01*
X140832Y233451D01*
X139800Y233587D01*
D02*
G37*
G36*
X203918Y211080D02*
X195060D01*
X193642Y210893D01*
X192322Y210346D01*
X191188Y209476D01*
X190317Y208342D01*
X189770Y207021D01*
X189584Y205604D01*
X189770Y204187D01*
X190317Y202866D01*
X191188Y201732D01*
X192322Y200862D01*
X193642Y200315D01*
X195060Y200128D01*
X203918D01*
X205335Y200315D01*
X206656Y200862D01*
X207790Y201732D01*
X208660Y202866D01*
X209208Y204187D01*
X209394Y205604D01*
X209208Y207021D01*
X208660Y208342D01*
X207790Y209476D01*
X206656Y210346D01*
X205335Y210893D01*
X203918Y211080D01*
D02*
G37*
G36*
X154800Y202130D02*
X153886Y202010D01*
X153035Y201657D01*
X152304Y201096D01*
X151743Y200365D01*
X151390Y199514D01*
X151341Y199139D01*
X113647D01*
X113296Y199596D01*
X112565Y200157D01*
X111714Y200510D01*
X110800Y200630D01*
X109886Y200510D01*
X109035Y200157D01*
X108304Y199596D01*
X107743Y198865D01*
X107390Y198014D01*
X107270Y197100D01*
X107390Y196186D01*
X107743Y195335D01*
X108304Y194604D01*
X109035Y194043D01*
X109886Y193690D01*
X110800Y193570D01*
X111714Y193690D01*
X112565Y194043D01*
X113296Y194604D01*
X113647Y195061D01*
X152488D01*
X153269Y195216D01*
X153481Y195358D01*
X153886Y195190D01*
X154800Y195070D01*
X155714Y195190D01*
X156565Y195543D01*
X157296Y196104D01*
X157857Y196835D01*
X158210Y197686D01*
X158330Y198600D01*
X158210Y199514D01*
X157857Y200365D01*
X157296Y201096D01*
X156565Y201657D01*
X155714Y202010D01*
X154800Y202130D01*
D02*
G37*
G36*
X84300Y193564D02*
Y190600D01*
X87264D01*
X87210Y191014D01*
X86857Y191865D01*
X86296Y192596D01*
X85565Y193157D01*
X84714Y193510D01*
X84300Y193564D01*
D02*
G37*
G36*
X83300D02*
X82886Y193510D01*
X82035Y193157D01*
X81304Y192596D01*
X80743Y191865D01*
X80390Y191014D01*
X80336Y190600D01*
X83300D01*
Y193564D01*
D02*
G37*
G36*
X211800Y196939D02*
Y187600D01*
X216776D01*
Y191529D01*
X216589Y192946D01*
X216042Y194267D01*
X215172Y195401D01*
X214038Y196272D01*
X212717Y196818D01*
X211800Y196939D01*
D02*
G37*
G36*
X210800D02*
X209883Y196818D01*
X208562Y196272D01*
X207428Y195401D01*
X206558Y194267D01*
X206011Y192946D01*
X205824Y191529D01*
Y187600D01*
X210800D01*
Y196939D01*
D02*
G37*
G36*
X87264Y189600D02*
X84300D01*
Y186636D01*
X84714Y186690D01*
X85565Y187043D01*
X86296Y187604D01*
X86857Y188335D01*
X87210Y189186D01*
X87264Y189600D01*
D02*
G37*
G36*
X83300D02*
X80336D01*
X80390Y189186D01*
X80743Y188335D01*
X81304Y187604D01*
X82035Y187043D01*
X82886Y186690D01*
X83300Y186636D01*
Y189600D01*
D02*
G37*
G36*
X216776Y186600D02*
X211800D01*
Y177261D01*
X212717Y177382D01*
X214038Y177928D01*
X215172Y178799D01*
X216042Y179933D01*
X216589Y181254D01*
X216776Y182671D01*
Y186600D01*
D02*
G37*
G36*
X210800D02*
X205824D01*
Y182671D01*
X206011Y181254D01*
X206558Y179933D01*
X207428Y178799D01*
X208562Y177928D01*
X209883Y177382D01*
X210800Y177261D01*
Y186600D01*
D02*
G37*
G36*
X216997Y150779D02*
X215734Y150613D01*
X214557Y150126D01*
X213546Y149350D01*
X212770Y148339D01*
X212283Y147162D01*
X212117Y145899D01*
X212283Y144636D01*
X212770Y143459D01*
X213546Y142448D01*
X214557Y141673D01*
X215734Y141185D01*
X216997Y141019D01*
X218260Y141185D01*
X219437Y141673D01*
X220448Y142448D01*
X221223Y143459D01*
X221711Y144636D01*
X221877Y145899D01*
X221711Y147162D01*
X221223Y148339D01*
X220448Y149350D01*
X219437Y150126D01*
X218260Y150613D01*
X216997Y150779D01*
D02*
G37*
G36*
X226800Y144941D02*
X225769Y144805D01*
X224809Y144407D01*
X223984Y143775D01*
X223351Y142950D01*
X222953Y141989D01*
X222817Y140958D01*
X222953Y139927D01*
X223351Y138967D01*
X223984Y138142D01*
X224809Y137509D01*
X225769Y137111D01*
X226800Y136975D01*
X227831Y137111D01*
X228791Y137509D01*
X229616Y138142D01*
X230249Y138967D01*
X230647Y139927D01*
X230783Y140958D01*
X230647Y141989D01*
X230249Y142950D01*
X229616Y143775D01*
X228791Y144407D01*
X227831Y144805D01*
X226800Y144941D01*
D02*
G37*
G36*
X202467Y141122D02*
X194266D01*
Y132921D01*
X202467D01*
Y141122D01*
D02*
G37*
G36*
X198867Y131249D02*
Y127679D01*
X202437D01*
X202362Y128249D01*
X201949Y129247D01*
X201291Y130103D01*
X200435Y130760D01*
X199437Y131174D01*
X198867Y131249D01*
D02*
G37*
G36*
X197867Y131249D02*
X197297Y131174D01*
X196299Y130760D01*
X195442Y130103D01*
X194785Y129247D01*
X194372Y128249D01*
X194297Y127679D01*
X197867D01*
Y131249D01*
D02*
G37*
G36*
X227300Y127159D02*
Y123742D01*
X230717D01*
X230647Y124273D01*
X230249Y125233D01*
X229616Y126058D01*
X228791Y126691D01*
X227831Y127089D01*
X227300Y127159D01*
D02*
G37*
G36*
X226300D02*
X225769Y127089D01*
X224809Y126691D01*
X223984Y126058D01*
X223351Y125233D01*
X222953Y124273D01*
X222883Y123742D01*
X226300D01*
Y127159D01*
D02*
G37*
G36*
X197867Y126679D02*
X194297D01*
X194372Y126108D01*
X194785Y125111D01*
X195442Y124254D01*
X196299Y123597D01*
X197297Y123184D01*
X197867Y123109D01*
Y126679D01*
D02*
G37*
G36*
X202437D02*
X198867D01*
Y123109D01*
X199437Y123184D01*
X200435Y123597D01*
X201291Y124254D01*
X201949Y125111D01*
X202362Y126108D01*
X202437Y126679D01*
D02*
G37*
G36*
X230717Y122742D02*
X227300D01*
Y119325D01*
X227831Y119395D01*
X228791Y119792D01*
X229616Y120425D01*
X230249Y121250D01*
X230647Y122211D01*
X230717Y122742D01*
D02*
G37*
G36*
X226300D02*
X222883D01*
X222953Y122211D01*
X223351Y121250D01*
X223984Y120425D01*
X224809Y119792D01*
X225769Y119395D01*
X226300Y119325D01*
Y122742D01*
D02*
G37*
G36*
X216997Y123181D02*
X215734Y123015D01*
X214557Y122527D01*
X213546Y121752D01*
X212770Y120741D01*
X212283Y119564D01*
X212117Y118301D01*
X212283Y117038D01*
X212770Y115861D01*
X213546Y114850D01*
X214557Y114074D01*
X215734Y113587D01*
X216997Y113420D01*
X218260Y113587D01*
X219437Y114074D01*
X220448Y114850D01*
X221223Y115861D01*
X221711Y117038D01*
X221877Y118301D01*
X221711Y119564D01*
X221223Y120741D01*
X220448Y121752D01*
X219437Y122527D01*
X218260Y123015D01*
X216997Y123181D01*
D02*
G37*
G36*
X142900Y152730D02*
X141986Y152610D01*
X141135Y152257D01*
X140404Y151696D01*
X140053Y151239D01*
X114647D01*
X114296Y151696D01*
X113565Y152257D01*
X112714Y152610D01*
X111800Y152730D01*
X110886Y152610D01*
X110035Y152257D01*
X109304Y151696D01*
X108743Y150965D01*
X108390Y150114D01*
X108270Y149200D01*
X108390Y148286D01*
X108743Y147435D01*
X109304Y146704D01*
X110035Y146143D01*
X110886Y145790D01*
X111800Y145670D01*
X112714Y145790D01*
X113565Y146143D01*
X114296Y146704D01*
X114647Y147161D01*
X140053D01*
X140404Y146704D01*
X141135Y146143D01*
X141986Y145790D01*
X142900Y145670D01*
X143814Y145790D01*
X144665Y146143D01*
X145396Y146704D01*
X145957Y147435D01*
X146310Y148286D01*
X146430Y149200D01*
X146310Y150114D01*
X145957Y150965D01*
X145396Y151696D01*
X144665Y152257D01*
X143814Y152610D01*
X142900Y152730D01*
D02*
G37*
G36*
Y142930D02*
X141986Y142810D01*
X141135Y142457D01*
X140404Y141896D01*
X140053Y141439D01*
X129800D01*
X129020Y141284D01*
X128358Y140842D01*
X116821Y129305D01*
X116250Y129380D01*
X115336Y129260D01*
X114485Y128907D01*
X113754Y128346D01*
X113193Y127615D01*
X112840Y126764D01*
X112720Y125850D01*
X112807Y125190D01*
X94148Y106532D01*
X93771Y106862D01*
X94057Y107235D01*
X94410Y108086D01*
X94530Y109000D01*
X94410Y109914D01*
X94057Y110765D01*
X93496Y111496D01*
X92765Y112057D01*
X91914Y112410D01*
X91000Y112530D01*
X90086Y112410D01*
X89235Y112057D01*
X88504Y111496D01*
X87943Y110765D01*
X87590Y109914D01*
X87470Y109000D01*
X87590Y108086D01*
X87943Y107235D01*
X88294Y106778D01*
X82558Y101042D01*
X82116Y100380D01*
X81961Y99600D01*
Y67518D01*
X81181Y66919D01*
X80547Y66093D01*
X80149Y65132D01*
X80013Y64100D01*
X80149Y63068D01*
X80547Y62107D01*
X81181Y61281D01*
X82007Y60647D01*
X82968Y60249D01*
X84000Y60113D01*
X85032Y60249D01*
X85993Y60647D01*
X86819Y61281D01*
X87453Y62107D01*
X87851Y63068D01*
X87987Y64100D01*
X87851Y65132D01*
X87453Y66093D01*
X86819Y66919D01*
X86039Y67518D01*
Y98755D01*
X91617Y104333D01*
X92077Y104087D01*
X91961Y103500D01*
Y67518D01*
X91181Y66919D01*
X90547Y66093D01*
X90149Y65132D01*
X90013Y64100D01*
X90149Y63068D01*
X90547Y62107D01*
X91181Y61281D01*
X92007Y60647D01*
X92968Y60249D01*
X94000Y60113D01*
X95032Y60249D01*
X95993Y60647D01*
X96819Y61281D01*
X97453Y62107D01*
X97851Y63068D01*
X97987Y64100D01*
X97851Y65132D01*
X97453Y66093D01*
X96819Y66919D01*
X96039Y67518D01*
Y102655D01*
X101461Y108077D01*
X101961Y107870D01*
Y67518D01*
X101181Y66919D01*
X100547Y66093D01*
X100149Y65132D01*
X100013Y64100D01*
X100149Y63068D01*
X100547Y62107D01*
X101181Y61281D01*
X102007Y60647D01*
X102968Y60249D01*
X104000Y60113D01*
X105032Y60249D01*
X105993Y60647D01*
X106819Y61281D01*
X107453Y62107D01*
X107851Y63068D01*
X107987Y64100D01*
X107851Y65132D01*
X107453Y66093D01*
X106819Y66919D01*
X106039Y67518D01*
Y107255D01*
X107094Y108310D01*
X107596Y108105D01*
X107690Y107386D01*
X108043Y106535D01*
X108604Y105804D01*
X109335Y105243D01*
X110186Y104890D01*
X111100Y104770D01*
X112014Y104890D01*
X112865Y105243D01*
X113596Y105804D01*
X113947Y106261D01*
X123800D01*
X123845Y106270D01*
X124205Y105832D01*
X123990Y105314D01*
X123936Y104900D01*
X130864D01*
X130810Y105314D01*
X130457Y106165D01*
X129896Y106896D01*
X129165Y107457D01*
X129156Y107461D01*
X129256Y107961D01*
X140653D01*
X141004Y107504D01*
X141735Y106943D01*
X142586Y106590D01*
X143500Y106470D01*
X144414Y106590D01*
X145265Y106943D01*
X145996Y107504D01*
X146557Y108235D01*
X146910Y109086D01*
X147030Y110000D01*
X146910Y110914D01*
X146557Y111765D01*
X145996Y112496D01*
X145265Y113057D01*
X144414Y113410D01*
X143500Y113530D01*
X142586Y113410D01*
X141735Y113057D01*
X141004Y112496D01*
X140653Y112039D01*
X125500D01*
X125155Y111970D01*
X124795Y112409D01*
X124910Y112686D01*
X125030Y113600D01*
X124955Y114171D01*
X138145Y127361D01*
X140053D01*
X140404Y126904D01*
X141135Y126343D01*
X141986Y125990D01*
X142900Y125870D01*
X143814Y125990D01*
X144665Y126343D01*
X145396Y126904D01*
X145957Y127635D01*
X146310Y128486D01*
X146430Y129400D01*
X146310Y130314D01*
X145957Y131165D01*
X145396Y131896D01*
X144665Y132457D01*
X143814Y132810D01*
X142900Y132930D01*
X141986Y132810D01*
X141135Y132457D01*
X140404Y131896D01*
X140053Y131439D01*
X137300D01*
X136520Y131284D01*
X135858Y130842D01*
X135858Y130842D01*
X122071Y117055D01*
X121500Y117130D01*
X120586Y117010D01*
X119735Y116657D01*
X119004Y116096D01*
X118653Y115639D01*
X109730D01*
X109523Y116139D01*
X115767Y122383D01*
X116250Y122320D01*
X117164Y122440D01*
X118015Y122793D01*
X118746Y123354D01*
X119307Y124085D01*
X119660Y124936D01*
X119780Y125850D01*
X119705Y126421D01*
X130645Y137361D01*
X140053D01*
X140404Y136904D01*
X141135Y136343D01*
X141986Y135990D01*
X142900Y135870D01*
X143814Y135990D01*
X144665Y136343D01*
X145396Y136904D01*
X145957Y137635D01*
X146310Y138486D01*
X146430Y139400D01*
X146310Y140314D01*
X145957Y141165D01*
X145396Y141896D01*
X144665Y142457D01*
X143814Y142810D01*
X142900Y142930D01*
D02*
G37*
G36*
X99000Y128564D02*
X98586Y128510D01*
X97735Y128157D01*
X97081Y127655D01*
X96787Y127591D01*
X96713D01*
X96419Y127655D01*
X95765Y128157D01*
X94914Y128510D01*
X94500Y128564D01*
Y125100D01*
X94000D01*
Y124600D01*
X90536D01*
X90590Y124186D01*
X90943Y123335D01*
X91444Y122681D01*
X91509Y122387D01*
Y122313D01*
X91444Y122019D01*
X90943Y121365D01*
X90590Y120514D01*
X90536Y120100D01*
X94000D01*
Y119600D01*
X94500D01*
Y116136D01*
X94914Y116190D01*
X95765Y116543D01*
X96419Y117044D01*
X96713Y117109D01*
X96787D01*
X97081Y117044D01*
X97735Y116543D01*
X98586Y116190D01*
X99000Y116136D01*
Y119600D01*
X99500D01*
Y120100D01*
X102964D01*
X102910Y120514D01*
X102557Y121365D01*
X101996Y122096D01*
X101991Y122100D01*
Y122600D01*
X101996Y122604D01*
X102557Y123335D01*
X102910Y124186D01*
X102964Y124600D01*
X99500D01*
Y125100D01*
X99000D01*
Y128564D01*
D02*
G37*
G36*
X100000D02*
Y125600D01*
X102964D01*
X102910Y126014D01*
X102557Y126865D01*
X101996Y127596D01*
X101265Y128157D01*
X100414Y128510D01*
X100000Y128564D01*
D02*
G37*
G36*
X93500D02*
X93086Y128510D01*
X92235Y128157D01*
X91504Y127596D01*
X90943Y126865D01*
X90590Y126014D01*
X90536Y125600D01*
X93500D01*
Y128564D01*
D02*
G37*
G36*
X102964Y119100D02*
X100000D01*
Y116136D01*
X100414Y116190D01*
X101265Y116543D01*
X101996Y117104D01*
X102557Y117835D01*
X102910Y118686D01*
X102964Y119100D01*
D02*
G37*
G36*
X93500D02*
X90536D01*
X90590Y118686D01*
X90943Y117835D01*
X91504Y117104D01*
X92235Y116543D01*
X93086Y116190D01*
X93500Y116136D01*
Y119100D01*
D02*
G37*
G36*
X111100Y104230D02*
X110186Y104110D01*
X109335Y103757D01*
X108604Y103196D01*
X108043Y102465D01*
X107690Y101614D01*
X107570Y100700D01*
X107690Y99786D01*
X108043Y98935D01*
X108604Y98204D01*
X109335Y97643D01*
X110186Y97290D01*
X111100Y97170D01*
X112014Y97290D01*
X112667Y97561D01*
X140653D01*
X141004Y97104D01*
X141735Y96543D01*
X142586Y96190D01*
X143500Y96070D01*
X144414Y96190D01*
X145265Y96543D01*
X145996Y97104D01*
X146557Y97835D01*
X146910Y98686D01*
X147030Y99600D01*
X146910Y100514D01*
X146557Y101365D01*
X145996Y102096D01*
X145265Y102657D01*
X144414Y103010D01*
X143500Y103130D01*
X142586Y103010D01*
X141735Y102657D01*
X141004Y102096D01*
X140653Y101639D01*
X130323D01*
X130077Y102139D01*
X130457Y102635D01*
X130810Y103486D01*
X130864Y103900D01*
X123936D01*
X123990Y103486D01*
X124343Y102635D01*
X124723Y102139D01*
X124477Y101639D01*
X114499D01*
X114157Y102465D01*
X113596Y103196D01*
X112865Y103757D01*
X112014Y104110D01*
X111100Y104230D01*
D02*
G37*
G36*
X129000Y86064D02*
Y83100D01*
X131964D01*
X131910Y83514D01*
X131557Y84365D01*
X130996Y85096D01*
X130265Y85657D01*
X129414Y86010D01*
X129000Y86064D01*
D02*
G37*
G36*
X128000D02*
X127586Y86010D01*
X126735Y85657D01*
X126004Y85096D01*
X125443Y84365D01*
X125090Y83514D01*
X125036Y83100D01*
X128000D01*
Y86064D01*
D02*
G37*
G36*
X162000Y85864D02*
Y82900D01*
X164964D01*
X164910Y83314D01*
X164557Y84165D01*
X163996Y84896D01*
X163265Y85457D01*
X162414Y85810D01*
X162000Y85864D01*
D02*
G37*
G36*
X161000D02*
X160586Y85810D01*
X159735Y85457D01*
X159004Y84896D01*
X158443Y84165D01*
X158090Y83314D01*
X158036Y82900D01*
X161000D01*
Y85864D01*
D02*
G37*
G36*
X131964Y82100D02*
X129000D01*
Y79136D01*
X129414Y79190D01*
X130265Y79543D01*
X130996Y80104D01*
X131557Y80835D01*
X131910Y81686D01*
X131964Y82100D01*
D02*
G37*
G36*
X128000D02*
X125036D01*
X125090Y81686D01*
X125443Y80835D01*
X126004Y80104D01*
X126735Y79543D01*
X127586Y79190D01*
X128000Y79136D01*
Y82100D01*
D02*
G37*
G36*
X164964Y81900D02*
X162000D01*
Y78936D01*
X162414Y78990D01*
X163265Y79343D01*
X163996Y79904D01*
X164557Y80635D01*
X164910Y81486D01*
X164964Y81900D01*
D02*
G37*
G36*
X161000D02*
X158036D01*
X158090Y81486D01*
X158443Y80635D01*
X159004Y79904D01*
X159735Y79343D01*
X160586Y78990D01*
X161000Y78936D01*
Y81900D01*
D02*
G37*
G36*
X143900Y85530D02*
X142986Y85410D01*
X142135Y85057D01*
X141404Y84496D01*
X140843Y83765D01*
X140490Y82914D01*
X140370Y82000D01*
X140445Y81429D01*
X136655Y77639D01*
X116000D01*
X115220Y77484D01*
X114558Y77042D01*
X112558Y75042D01*
X112116Y74380D01*
X111961Y73600D01*
Y67518D01*
X111181Y66919D01*
X110547Y66093D01*
X110149Y65132D01*
X110013Y64100D01*
X110149Y63068D01*
X110547Y62107D01*
X111181Y61281D01*
X112007Y60647D01*
X112968Y60249D01*
X114000Y60113D01*
X115032Y60249D01*
X115993Y60647D01*
X116819Y61281D01*
X117453Y62107D01*
X117851Y63068D01*
X117987Y64100D01*
X117851Y65132D01*
X117453Y66093D01*
X116819Y66919D01*
X116039Y67518D01*
Y72755D01*
X116845Y73561D01*
X137500D01*
X138280Y73716D01*
X138942Y74158D01*
X143329Y78545D01*
X143900Y78470D01*
X144814Y78590D01*
X145665Y78943D01*
X146396Y79504D01*
X146957Y80235D01*
X147310Y81086D01*
X147430Y82000D01*
X147310Y82914D01*
X146957Y83765D01*
X146396Y84496D01*
X145665Y85057D01*
X144814Y85410D01*
X143900Y85530D01*
D02*
G37*
G36*
X74500Y68021D02*
Y64600D01*
X77921D01*
X77851Y65132D01*
X77453Y66093D01*
X76819Y66919D01*
X75993Y67553D01*
X75032Y67951D01*
X74500Y68021D01*
D02*
G37*
G36*
X73500D02*
X72968Y67951D01*
X72007Y67553D01*
X71181Y66919D01*
X70547Y66093D01*
X70149Y65132D01*
X70079Y64600D01*
X73500D01*
Y68021D01*
D02*
G37*
G36*
X77921Y63600D02*
X74500D01*
Y60179D01*
X75032Y60249D01*
X75993Y60647D01*
X76819Y61281D01*
X77453Y62107D01*
X77851Y63068D01*
X77921Y63600D01*
D02*
G37*
G36*
X73500D02*
X70079D01*
X70149Y63068D01*
X70547Y62107D01*
X71181Y61281D01*
X72007Y60647D01*
X72968Y60249D01*
X73500Y60179D01*
Y63600D01*
D02*
G37*
G36*
X137953Y68053D02*
X130047D01*
Y60147D01*
X137953D01*
Y68053D01*
D02*
G37*
G36*
X124000Y68087D02*
X122968Y67951D01*
X122007Y67553D01*
X121181Y66919D01*
X120547Y66093D01*
X120149Y65132D01*
X120013Y64100D01*
X120149Y63068D01*
X120547Y62107D01*
X121181Y61281D01*
X122007Y60647D01*
X122968Y60249D01*
X124000Y60113D01*
X125032Y60249D01*
X125993Y60647D01*
X126819Y61281D01*
X127453Y62107D01*
X127851Y63068D01*
X127987Y64100D01*
X127851Y65132D01*
X127453Y66093D01*
X126819Y66919D01*
X125993Y67553D01*
X125032Y67951D01*
X124000Y68087D01*
D02*
G37*
%LPD*%
D15*
X64750Y178600D02*
X174500D01*
X174500Y51600D01*
X65500Y51600D02*
X174500Y51600D01*
D59*
X137500Y75600D02*
X143900Y82000D01*
X116000Y75600D02*
X137500D01*
X125500Y110000D02*
X143500D01*
X123800Y108300D02*
X125500Y110000D01*
X111100Y108300D02*
X123800D01*
X112200Y99600D02*
X143500D01*
X111100Y100700D02*
X112200Y99600D01*
X111800Y149200D02*
X142900D01*
Y159300D02*
X143500D01*
X140300D02*
X142900D01*
X120500Y156900D02*
Y173600D01*
X76000Y152100D02*
X80800Y156900D01*
X137900D02*
X140300Y159300D01*
X120500Y156900D02*
X137900D01*
X116250Y125750D02*
Y125850D01*
X94000Y103500D02*
X116250Y125750D01*
Y125850D02*
X129800Y139400D01*
X142900D01*
X94000Y64100D02*
Y103500D01*
X157800Y221600D02*
X220300D01*
X109500Y113600D02*
X121500D01*
X104000Y108100D02*
X109500Y113600D01*
X104000Y64100D02*
Y108100D01*
X91000Y106600D02*
Y109000D01*
X84000Y99600D02*
X91000Y106600D01*
X137300Y129400D02*
X142900D01*
X121500Y113600D02*
X137300Y129400D01*
X110800Y197100D02*
X152488D01*
X100500Y171500D02*
Y173600D01*
X97100Y168100D02*
X100500Y171500D01*
X74500Y168100D02*
X97100D01*
X121300Y213600D02*
X126800Y208100D01*
X82800Y213600D02*
X121300D01*
X82300Y214100D02*
X82800Y213600D01*
X66500Y57100D02*
Y75100D01*
X70500Y79100D01*
X172800Y236100D02*
X196800D01*
X169800Y233100D02*
X172800Y236100D01*
X169800Y229600D02*
Y233100D01*
X166800Y240100D02*
X204300D01*
X159800Y233100D02*
X166800Y240100D01*
X159800Y229600D02*
Y233100D01*
X213300Y210600D02*
X227300D01*
X208300Y215600D02*
X213300Y210600D01*
X210300Y229100D02*
Y234100D01*
X204300Y240100D02*
X210300Y234100D01*
X200300Y229100D02*
Y232600D01*
X196800Y236100D02*
X200300Y232600D01*
X71500Y171100D02*
X74500Y168100D01*
X152800Y215600D02*
X208300D01*
X149800Y229600D02*
X157800Y221600D01*
X97800Y220600D02*
X123300D01*
X85800Y232600D02*
X97800Y220600D01*
X82300Y232600D02*
X85800D01*
X123300Y220600D02*
X129300Y214600D01*
X137300D01*
X126800Y208100D02*
X142300D01*
X139800Y228600D02*
Y229600D01*
Y228600D02*
X152800Y215600D01*
X146800Y203600D02*
X148472Y205272D01*
X129800Y229600D02*
X148472Y210928D01*
Y205272D02*
Y210928D01*
X94800Y203600D02*
X146800D01*
X93300Y196600D02*
Y202100D01*
X94800Y203600D01*
X152488Y197100D02*
X153988Y198600D01*
X154800D01*
X80800Y156900D02*
X120500D01*
X114000Y73600D02*
X116000Y75600D01*
X114000Y64100D02*
Y73600D01*
X70500Y79100D02*
Y101100D01*
X84000Y64100D02*
Y99600D01*
D61*
X93082Y190100D02*
X184678D01*
X117300Y209100D02*
X117800Y208600D01*
X88300Y209100D02*
X117300D01*
X87300Y208100D02*
X88300Y209100D01*
X87300Y195882D02*
Y208100D01*
Y195882D02*
X93082Y190100D01*
X184678D02*
X187678Y187100D01*
D62*
X114000Y64100D02*
D03*
X124000D02*
D03*
X104000D02*
D03*
X94000D02*
D03*
X84000D02*
D03*
X74000D02*
D03*
X210300Y229100D02*
D03*
X119800Y229600D02*
D03*
X129800D02*
D03*
X139800D02*
D03*
X149800D02*
D03*
X169800D02*
D03*
X159800D02*
D03*
X90100Y173100D02*
D03*
X100100D02*
D03*
X110100D02*
D03*
X120100D02*
D03*
X130100D02*
D03*
X82300Y222600D02*
D03*
D63*
X134000Y64100D02*
D03*
X200300Y229100D02*
D03*
X179800Y229600D02*
D03*
X80100Y173100D02*
D03*
D64*
X233300Y228852D02*
D03*
D65*
Y236726D02*
D03*
Y244600D02*
D03*
D66*
Y252868D02*
D03*
Y220584D02*
D03*
D67*
X198367Y127179D02*
D03*
D68*
Y137021D02*
D03*
D69*
X199489Y205604D02*
D03*
D70*
X211300Y187100D02*
D03*
D71*
X187678D02*
D03*
D72*
X226800Y123242D02*
D03*
Y140958D02*
D03*
D73*
X216997Y145899D02*
D03*
Y118301D02*
D03*
D74*
X82300Y232600D02*
D03*
D75*
X143900Y82000D02*
D03*
X161500Y82400D02*
D03*
X92100Y239800D02*
D03*
X127400Y104400D02*
D03*
X143500Y110000D02*
D03*
Y99600D02*
D03*
X111800Y149200D02*
D03*
X116250Y125850D02*
D03*
X91000Y109000D02*
D03*
X111100Y108300D02*
D03*
Y100700D02*
D03*
X142900Y129400D02*
D03*
Y139400D02*
D03*
Y149200D02*
D03*
Y159300D02*
D03*
X110800Y197100D02*
D03*
X88300Y209100D02*
D03*
X66500Y57100D02*
D03*
X220300Y221100D02*
D03*
X227300Y210600D02*
D03*
X71500Y171100D02*
D03*
X137300Y214600D02*
D03*
X82300Y214100D02*
D03*
X93300Y196600D02*
D03*
X83800Y190100D02*
D03*
X142300Y208100D02*
D03*
X117800Y208600D02*
D03*
X99500Y125100D02*
D03*
Y119600D02*
D03*
X94000D02*
D03*
Y125100D02*
D03*
X128500Y82600D02*
D03*
X70500Y101100D02*
D03*
X154800Y198600D02*
D03*
X121500Y113600D02*
D03*
X76000Y152100D02*
D03*
M02*
