G04*
G04 #@! TF.GenerationSoftware,Altium Limited,Altium Designer,20.0.2 (26)*
G04*
G04 Layer_Color=16711935*
%FSLAX25Y25*%
%MOIN*%
G70*
G01*
G75*
%ADD30C,0.00800*%
%ADD31C,0.06706*%
%ADD32R,0.06706X0.06706*%
%ADD33R,0.05950X0.05950*%
%ADD34C,0.05950*%
%ADD35C,0.10249*%
%ADD36C,0.07001*%
%ADD37R,0.07001X0.07001*%
%ADD38O,0.18517X0.09658*%
%ADD39O,0.09658X0.18517*%
%ADD40O,0.10642X0.20485*%
%ADD41C,0.06698*%
%ADD42C,0.08477*%
%ADD43R,0.06706X0.06706*%
%ADD44C,0.05800*%
D30*
X177900Y160600D02*
D03*
X156000Y181900D02*
D03*
X111383Y185100D02*
D03*
X114927D02*
D03*
X118470D02*
D03*
X122013D02*
D03*
X125557D02*
D03*
X129100D02*
D03*
X174500Y117070D02*
D03*
Y120613D02*
D03*
Y124157D02*
D03*
Y127700D02*
D03*
Y131243D02*
D03*
Y134787D02*
D03*
X181200Y117070D02*
D03*
Y120613D02*
D03*
Y124157D02*
D03*
Y127700D02*
D03*
Y131243D02*
D03*
Y134787D02*
D03*
X129100Y178600D02*
D03*
X125557D02*
D03*
X122013D02*
D03*
X118470D02*
D03*
X114927D02*
D03*
X111383D02*
D03*
D31*
X114000Y64100D02*
D03*
X124000D02*
D03*
X104000D02*
D03*
X94000D02*
D03*
X84000D02*
D03*
X74000D02*
D03*
X210300Y229100D02*
D03*
X119800Y229600D02*
D03*
X129800D02*
D03*
X139800D02*
D03*
X149800D02*
D03*
X169800D02*
D03*
X159800D02*
D03*
X90100Y173100D02*
D03*
X100100D02*
D03*
X110100D02*
D03*
X120100D02*
D03*
X130100D02*
D03*
X82300Y222600D02*
D03*
D32*
X134000Y64100D02*
D03*
X200300Y229100D02*
D03*
X179800Y229600D02*
D03*
X80100Y173100D02*
D03*
D33*
X233300Y228852D02*
D03*
D34*
Y236726D02*
D03*
Y244600D02*
D03*
D35*
Y252868D02*
D03*
Y220584D02*
D03*
D36*
X198367Y127179D02*
D03*
D37*
Y137021D02*
D03*
D38*
X199489Y205604D02*
D03*
D39*
X211300Y187100D02*
D03*
D40*
X187678D02*
D03*
D41*
X226800Y123242D02*
D03*
Y140958D02*
D03*
D42*
X216997Y145899D02*
D03*
Y118301D02*
D03*
D43*
X82300Y232600D02*
D03*
D44*
X143900Y82000D02*
D03*
X161500Y82400D02*
D03*
X92100Y239800D02*
D03*
X127400Y104400D02*
D03*
X143500Y110000D02*
D03*
Y99600D02*
D03*
X111800Y149200D02*
D03*
X116250Y125850D02*
D03*
X91000Y109000D02*
D03*
X111100Y108300D02*
D03*
Y100700D02*
D03*
X142900Y129400D02*
D03*
Y139400D02*
D03*
Y149200D02*
D03*
Y159300D02*
D03*
X110800Y197100D02*
D03*
X88300Y209100D02*
D03*
X66500Y57100D02*
D03*
X220300Y221100D02*
D03*
X227300Y210600D02*
D03*
X71500Y171100D02*
D03*
X137300Y214600D02*
D03*
X82300Y214100D02*
D03*
X93300Y196600D02*
D03*
X83800Y190100D02*
D03*
X142300Y208100D02*
D03*
X117800Y208600D02*
D03*
X99500Y125100D02*
D03*
Y119600D02*
D03*
X94000D02*
D03*
Y125100D02*
D03*
X128500Y82600D02*
D03*
X70500Y101100D02*
D03*
X154800Y198600D02*
D03*
X121500Y113600D02*
D03*
X76000Y152100D02*
D03*
M02*
