G04*
G04 #@! TF.GenerationSoftware,Altium Limited,Altium Designer,20.0.2 (26)*
G04*
G04 Layer_Color=16711935*
%FSLAX25Y25*%
%MOIN*%
G70*
G01*
G75*
%ADD10C,0.00787*%
%ADD14C,0.00500*%
%ADD76C,0.00394*%
G36*
X157240Y107265D02*
X155272D01*
Y111989D01*
X157240D01*
Y107265D01*
D02*
G37*
G36*
X151335D02*
X149366D01*
Y111989D01*
X151335D01*
Y107265D01*
D02*
G37*
G36*
X158009Y89003D02*
X156200D01*
Y91313D01*
X158009D01*
Y89003D01*
D02*
G37*
G36*
X150599D02*
X148800D01*
Y91306D01*
X150599D01*
Y89003D01*
D02*
G37*
G36*
X123102Y81401D02*
X120800D01*
Y83200D01*
X123102D01*
Y81401D01*
D02*
G37*
G36*
X154300Y81103D02*
X152500D01*
Y83403D01*
X154300D01*
Y81103D01*
D02*
G37*
G36*
X115199Y77700D02*
X112900D01*
Y79500D01*
X115199D01*
Y77700D01*
D02*
G37*
G36*
X123110Y73991D02*
X120800D01*
Y75800D01*
X123110D01*
Y73991D01*
D02*
G37*
D10*
X154234Y67847D02*
X153446D01*
X154234D01*
X222670Y228852D02*
X221883D01*
X222670D01*
X198761Y149580D02*
X197973D01*
X198761D01*
X157635Y202840D02*
X156847D01*
X157635D01*
X153674Y193687D02*
X152887D01*
X153674D01*
X113056Y232356D02*
X112268D01*
X113056D01*
X149366Y111989D02*
X157240D01*
Y107265D02*
Y111989D01*
X149366Y107265D02*
X157240D01*
X149366D02*
Y111989D01*
D14*
X156202Y62653D02*
Y69346D01*
X143998Y62653D02*
X156202D01*
X143998D02*
Y69346D01*
X156202D01*
X241765Y244600D02*
X257513D01*
Y228852D02*
Y244600D01*
X241765Y228852D02*
X257513D01*
X224835Y219797D02*
Y253655D01*
X241765D01*
Y244600D02*
Y253655D01*
Y228852D02*
Y244600D01*
Y219797D02*
Y228852D01*
X224835Y219797D02*
X241765D01*
X184981Y146667D02*
X207619D01*
Y117533D02*
Y146667D01*
X184981Y117533D02*
X207619D01*
X184981D02*
Y146667D01*
X184922Y169384D02*
Y204817D01*
Y169384D02*
X241615D01*
Y204817D01*
X184922D02*
X241615D01*
X115441Y75647D02*
Y81553D01*
X118591Y72891D02*
X120559D01*
Y77616D01*
Y79584D02*
Y84309D01*
X118591D02*
X120559D01*
X150447Y83644D02*
X156353D01*
X159109Y86794D02*
Y88762D01*
X154384D02*
X159109D01*
X147691D02*
X152416D01*
X147691Y86794D02*
Y88762D01*
X211013Y118104D02*
X241997D01*
Y146096D01*
X211013D02*
X241997D01*
X211013Y118104D02*
Y146096D01*
X164150Y204809D02*
X170450D01*
Y193391D02*
Y204809D01*
X164150Y193391D02*
X170450D01*
X164150D02*
Y204809D01*
X126942Y193135D02*
Y205065D01*
X144658Y193135D02*
Y205065D01*
X126942D02*
X144658D01*
X126942Y193135D02*
X144658D01*
X112839Y206982D02*
Y222730D01*
X92761Y206982D02*
Y222730D01*
X112839D01*
X92761Y206982D02*
X112839D01*
D76*
X159567Y71032D02*
X165079D01*
X159567Y62568D02*
X165079D01*
Y71032D01*
X159567Y62568D02*
Y71032D01*
X149268Y116701D02*
Y122213D01*
X157732Y116701D02*
Y122213D01*
X149268D02*
X157732D01*
X149268Y116701D02*
X157732D01*
X188568Y221856D02*
X197032D01*
X188568Y216344D02*
X197032D01*
X188568D02*
Y221856D01*
X197032Y216344D02*
Y221856D01*
X133712Y74368D02*
Y82832D01*
X139223Y74368D02*
Y82832D01*
X133712Y74368D02*
X139223D01*
X133712Y82832D02*
X139223D01*
X76095Y75613D02*
Y81125D01*
X87906Y75613D02*
Y81125D01*
X76095Y75613D02*
X87906D01*
X76095Y81125D02*
X87906D01*
X97744Y74368D02*
Y82832D01*
X103256Y74368D02*
Y82832D01*
X97744Y74368D02*
X103256D01*
X97744Y82832D02*
X103256D01*
X51756Y74368D02*
Y82832D01*
X46244Y74368D02*
Y82832D01*
X51756D01*
X46244Y74368D02*
X51756D01*
X61744D02*
Y82832D01*
X67256Y74368D02*
Y82832D01*
X61744Y74368D02*
X67256D01*
X61744Y82832D02*
X67256D01*
X149268Y97080D02*
X157732D01*
X149268Y102592D02*
X157732D01*
Y97080D02*
Y102592D01*
X149268Y97080D02*
Y102592D01*
Y146487D02*
Y151999D01*
X157732Y146487D02*
Y151999D01*
X149268D02*
X157732D01*
X149268Y146487D02*
X157732D01*
X149268Y166344D02*
Y171856D01*
X157732Y166344D02*
Y171856D01*
X149268D02*
X157732D01*
X149268Y166344D02*
X157732D01*
X149268Y156415D02*
Y161927D01*
X157732Y156415D02*
Y161927D01*
X149268D02*
X157732D01*
X149268Y156415D02*
X157732D01*
X149268Y136558D02*
Y142070D01*
X157732Y136558D02*
Y142070D01*
X149268D02*
X157732D01*
X149268Y136558D02*
X157732D01*
X149168Y126630D02*
Y132142D01*
X157632Y126630D02*
Y132142D01*
X149168D02*
X157632D01*
X149168Y126630D02*
X157632D01*
X145818Y216344D02*
Y221856D01*
X154282Y216344D02*
Y221856D01*
X145818D02*
X154282D01*
X145818Y216344D02*
X154282D01*
X123568D02*
Y221856D01*
X132032Y216344D02*
Y221856D01*
X123568D02*
X132032D01*
X123568Y216344D02*
X132032D01*
X168068D02*
Y221856D01*
X176532Y216344D02*
Y221856D01*
X168068D02*
X176532D01*
X168068Y216344D02*
X176532D01*
X107032Y187344D02*
Y192856D01*
X98568Y187344D02*
Y192856D01*
Y187344D02*
X107032D01*
X98568Y192856D02*
X107032D01*
X98568Y236844D02*
Y242356D01*
X107032Y236844D02*
Y242356D01*
X98568D02*
X107032D01*
X98568Y236844D02*
X107032D01*
M02*
