M48
;Layer_Color=9474304
;FILE_FORMAT=2:4
INCH,TZ
;TYPE=PLATED
T1F00S00C0.0236
T2F00S00C0.0280
T3F00S00C0.0315
T4F00S00C0.0354
T5F00S00C0.0390
T7F00S00C0.0413
T8F00S00C0.0512
T9F00S00C0.0630
%
T01
X17450Y11707
Y12061
Y12416
Y12770
Y13124
Y13479
X18120
Y13124
Y12770
Y12416
Y12061
Y11707
X12910Y17860
X12556
X12201
X11847
X11493
X11138
Y18510
X11493
X11847
X12201
X12556
X12910
T02
X6650Y5710
X7050Y10110
X9100Y10900
X9400Y11960
X9950
Y12510
X9400
X11625Y12585
X12150Y11360
X12740Y10440
X11110Y10070
Y10830
X14350Y11000
Y9960
X14390Y8200
X12850Y8260
X14290Y12940
Y13940
Y14920
X11180
X7600Y15210
X16150Y8240
X22730Y21060
X22030Y22110
X15480Y19860
X14230Y20810
X13730Y21460
X11780Y20860
X11080Y19710
X9330Y19660
X8380Y19010
X8830Y20910
X8230Y21410
X9210Y23980
X7150Y17110
X14290Y15930
T03
X23330Y22885
Y23673
Y24460
T04
X7400Y6410
X8400
X9400
X10400
X11400
X12400
X13400
X15980Y22960
X16980
X17980
X20030Y22910
X21030
X14980Y22960
X13980
X12980
X11980
X8230Y23260
Y22260
X8010Y17310
X9010
X10010
X11010
X12010
X13010
T05
X22680Y12324
Y14096
T07
X19837Y12718
Y13702
T08
X21700Y11830
Y14590
T09
X23330Y22058
Y25287
M30
